%FSLAX42Y42*%
%MOMM*%
G71*
G01*
G75*
G04 Layer_Color=2752767*
%ADD10C,0.10*%
%ADD11C,0.30*%
%ADD12R,1.60X1.00*%
%ADD13R,1.00X1.60*%
%ADD14R,0.90X1.00*%
%ADD15R,1.00X0.90*%
%ADD16O,2.20X0.60*%
%ADD17R,2.60X1.70*%
%ADD18R,2.00X2.00*%
%ADD19R,2.00X2.00*%
%ADD20R,0.25X0.25*%
%ADD21R,4.00X4.50*%
%ADD22R,1.60X1.00*%
%ADD23R,1.00X1.60*%
%ADD24R,3.00X1.50*%
%ADD25R,1.30X1.52*%
%ADD26R,2.54X3.05*%
%ADD27O,0.60X2.20*%
%ADD28R,0.60X1.50*%
%ADD29R,1.20X0.60*%
%ADD30R,0.35X1.80*%
%ADD31O,0.35X1.80*%
%ADD32R,1.05X2.00*%
%ADD33R,10.55X8.40*%
%ADD34R,2.00X5.00*%
G04:AMPARAMS|DCode=35|XSize=0.3mm|YSize=1.8mm|CornerRadius=0mm|HoleSize=0mm|Usage=FLASHONLY|Rotation=45.000|XOffset=0mm|YOffset=0mm|HoleType=Round|Shape=Round|*
%AMOVALD35*
21,1,1.50,0.30,0.00,0.00,135.0*
1,1,0.30,0.53,-0.53*
1,1,0.30,-0.53,0.53*
%
%ADD35OVALD35*%

G04:AMPARAMS|DCode=36|XSize=0.3mm|YSize=1.8mm|CornerRadius=0mm|HoleSize=0mm|Usage=FLASHONLY|Rotation=135.000|XOffset=0mm|YOffset=0mm|HoleType=Round|Shape=Round|*
%AMOVALD36*
21,1,1.50,0.30,0.00,0.00,225.0*
1,1,0.30,0.53,0.53*
1,1,0.30,-0.53,-0.53*
%
%ADD36OVALD36*%

%ADD37R,1.60X1.60*%
%ADD38C,1.50*%
%ADD39C,1.00*%
%ADD40C,0.25*%
%ADD41C,0.35*%
%ADD42C,3.00*%
%ADD43C,0.75*%
%ADD44C,2.00*%
%ADD45C,1.25*%
%ADD46C,0.50*%
%ADD47R,1.50X1.50*%
%ADD48C,6.00*%
%ADD49C,1.60*%
%ADD50C,4.00*%
%ADD51C,2.30*%
%ADD52R,2.30X2.30*%
%ADD53R,1.50X1.50*%
%ADD54C,1.85*%
%ADD55R,1.85X1.85*%
%ADD56C,2.40*%
%ADD57R,3.20X3.20*%
%ADD58C,3.20*%
%ADD59C,3.00*%
%ADD60C,3.10*%
%ADD61R,1.70X1.70*%
%ADD62C,1.70*%
%ADD63R,1.70X1.70*%
%ADD64C,2.00*%
%ADD65R,1.80X1.80*%
%ADD66C,1.80*%
%ADD67C,1.40*%
%ADD68C,1.52*%
%ADD69R,1.52X1.52*%
%ADD70C,3.80*%
%ADD71C,5.00*%
%ADD72C,2.50*%
%ADD73C,2.20*%
%ADD74R,3.05X3.05*%
%ADD75C,3.05*%
G04:AMPARAMS|DCode=76|XSize=2.5mm|YSize=2.5mm|CornerRadius=0.63mm|HoleSize=0mm|Usage=FLASHONLY|Rotation=0.000|XOffset=0mm|YOffset=0mm|HoleType=Round|Shape=RoundedRectangle|*
%AMROUNDEDRECTD76*
21,1,2.50,1.25,0,0,0.0*
21,1,1.25,2.50,0,0,0.0*
1,1,1.25,0.63,-0.63*
1,1,1.25,-0.63,-0.63*
1,1,1.25,-0.63,0.63*
1,1,1.25,0.63,0.63*
%
%ADD76ROUNDEDRECTD76*%
G04:AMPARAMS|DCode=77|XSize=2.5mm|YSize=2.5mm|CornerRadius=0.63mm|HoleSize=0mm|Usage=FLASHONLY|Rotation=90.000|XOffset=0mm|YOffset=0mm|HoleType=Round|Shape=RoundedRectangle|*
%AMROUNDEDRECTD77*
21,1,2.50,1.25,0,0,90.0*
21,1,1.25,2.50,0,0,90.0*
1,1,1.25,0.63,0.63*
1,1,1.25,0.63,-0.63*
1,1,1.25,-0.63,-0.63*
1,1,1.25,-0.63,0.63*
%
%ADD77ROUNDEDRECTD77*%
%ADD78C,2.80*%
%ADD79R,2.80X2.80*%
%ADD80R,3.05X3.05*%
%ADD81R,2.30X2.30*%
%ADD82R,1.78X1.78*%
%ADD83C,1.78*%
%ADD84C,1.27*%
%ADD85R,1.80X1.60*%
%ADD86R,1.60X1.80*%
%ADD87C,2.54*%
%ADD88C,0.17*%
%ADD89C,0.10*%
D10*
X16408Y3546D02*
Y3648D01*
X16510D01*
Y3546D01*
X16408D01*
Y3896D02*
Y3998D01*
X16510D01*
Y3896D01*
X16408D01*
X508Y445D02*
X457Y546D01*
X559D01*
X508Y445D01*
Y15024D02*
X457Y15126D01*
X559D01*
X508Y15024D01*
X22098D02*
X22047Y15126D01*
X22149D01*
X22098Y15024D01*
X22073Y-14554D02*
X22022Y-14453D01*
X22123D01*
X22073Y-14554D01*
X22263Y-15443D02*
X22212Y-15342D01*
X22314D01*
X22263Y-15443D01*
X22098Y445D02*
X22047Y546D01*
X22149D01*
X22098Y445D01*
X18415Y8966D02*
X18440Y8992D01*
X18466D01*
X18440Y9017D01*
X18466Y9042D01*
X18440D01*
X18415Y9068D01*
X18390Y9042D01*
X18364D01*
X18390Y9017D01*
X18364Y8992D01*
X18390D01*
X18415Y8966D01*
X18428Y11328D02*
X18453Y11354D01*
X18479D01*
X18453Y11379D01*
X18479Y11405D01*
X18453D01*
X18428Y11430D01*
X18402Y11405D01*
X18377D01*
X18402Y11379D01*
X18377Y11354D01*
X18402D01*
X18428Y11328D01*
X18415Y13081D02*
X18440Y13106D01*
X18466D01*
X18440Y13132D01*
X18466Y13157D01*
X18440D01*
X18415Y13183D01*
X18390Y13157D01*
X18364D01*
X18390Y13132D01*
X18364Y13106D01*
X18390D01*
X18415Y13081D01*
X8852Y4229D02*
X8877Y4280D01*
X8852Y4331D01*
X8903Y4305D01*
X8954Y4331D01*
X8928Y4280D01*
X8954Y4229D01*
X8903Y4254D01*
X8852Y4229D01*
X7836D02*
X7861Y4280D01*
X7836Y4331D01*
X7887Y4305D01*
X7938Y4331D01*
X7912Y4280D01*
X7938Y4229D01*
X7887Y4254D01*
X7836Y4229D01*
X8852Y4508D02*
X8877Y4559D01*
X8852Y4610D01*
X8903Y4585D01*
X8954Y4610D01*
X8928Y4559D01*
X8954Y4508D01*
X8903Y4534D01*
X8852Y4508D01*
X7836D02*
X7861Y4559D01*
X7836Y4610D01*
X7887Y4585D01*
X7938Y4610D01*
X7912Y4559D01*
X7938Y4508D01*
X7887Y4534D01*
X7836Y4508D01*
X8852Y4788D02*
X8877Y4839D01*
X8852Y4890D01*
X8903Y4864D01*
X8954Y4890D01*
X8928Y4839D01*
X8954Y4788D01*
X8903Y4813D01*
X8852Y4788D01*
X7836D02*
X7861Y4839D01*
X7836Y4890D01*
X7887Y4864D01*
X7938Y4890D01*
X7912Y4839D01*
X7938Y4788D01*
X7887Y4813D01*
X7836Y4788D01*
X6960Y13754D02*
Y13729D01*
X7010D01*
Y13754D01*
X7036D01*
Y13805D01*
X7010D01*
Y13830D01*
X6960D01*
Y13805D01*
X6934D01*
Y13754D01*
X6960D01*
X6006Y14652D02*
X6031D01*
X6057Y14677D01*
X6082Y14652D01*
X6108D01*
Y14677D01*
X6082Y14703D01*
X6108Y14728D01*
Y14753D01*
X6082D01*
X6057Y14728D01*
X6031Y14753D01*
X6006D01*
Y14728D01*
X6031Y14703D01*
X6006Y14677D01*
Y14652D01*
Y13462D02*
X6031D01*
X6057Y13487D01*
X6082Y13462D01*
X6108D01*
Y13487D01*
X6082Y13513D01*
X6108Y13538D01*
Y13563D01*
X6082D01*
X6057Y13538D01*
X6031Y13563D01*
X6006D01*
Y13538D01*
X6031Y13513D01*
X6006Y13487D01*
Y13462D01*
X7866Y12792D02*
X7891D01*
X7917Y12817D01*
X7942Y12792D01*
X7968D01*
Y12817D01*
X7942Y12843D01*
X7968Y12868D01*
Y12893D01*
X7942D01*
X7917Y12868D01*
X7891Y12893D01*
X7866D01*
Y12868D01*
X7891Y12843D01*
X7866Y12817D01*
Y12792D01*
Y14652D02*
X7891D01*
X7917Y14677D01*
X7942Y14652D01*
X7968D01*
Y14677D01*
X7942Y14703D01*
X7968Y14728D01*
Y14753D01*
X7942D01*
X7917Y14728D01*
X7891Y14753D01*
X7866D01*
Y14728D01*
X7891Y14703D01*
X7866Y14677D01*
Y14652D01*
X18136Y6083D02*
X18186Y6134D01*
X18237Y6083D01*
X18186Y6033D01*
X18136Y6083D01*
X17590Y7922D02*
Y8024D01*
X17692D01*
Y7922D01*
X17590D01*
X17610Y7943D02*
Y8004D01*
X17671D01*
Y7943D01*
X17610D01*
X18135Y8222D02*
Y8324D01*
X18237D01*
Y8222D01*
X18135D01*
X18155Y8243D02*
Y8304D01*
X18216D01*
Y8243D01*
X18155D01*
X18680Y7922D02*
Y8024D01*
X18782D01*
Y7922D01*
X18680D01*
X18700Y7943D02*
Y8004D01*
X18761D01*
Y7943D01*
X18700D01*
X17983Y4508D02*
Y4610D01*
X18085D01*
Y4508D01*
X17983D01*
Y4762D02*
Y4864D01*
X18085D01*
Y4762D01*
X17983D01*
Y5017D02*
Y5118D01*
X18085D01*
Y5017D01*
X17983D01*
Y5271D02*
Y5372D01*
X18085D01*
Y5271D01*
X17983D01*
X17221Y4508D02*
Y4610D01*
X17323D01*
Y4508D01*
X17221D01*
Y4762D02*
Y4864D01*
X17323D01*
Y4762D01*
X17221D01*
Y5017D02*
Y5118D01*
X17323D01*
Y5017D01*
X17221D01*
Y5271D02*
Y5372D01*
X17323D01*
Y5271D01*
X17221D01*
X20015Y5017D02*
X20041Y5067D01*
X20015Y5118D01*
X20066Y5093D01*
X20117Y5118D01*
X20091Y5067D01*
X20117Y5017D01*
X20066Y5042D01*
X20015Y5017D01*
Y5271D02*
X20041Y5321D01*
X20015Y5372D01*
X20066Y5347D01*
X20117Y5372D01*
X20091Y5321D01*
X20117Y5271D01*
X20066Y5296D01*
X20015Y5271D01*
Y4762D02*
X20041Y4813D01*
X20015Y4864D01*
X20066Y4839D01*
X20117Y4864D01*
X20091Y4813D01*
X20117Y4762D01*
X20066Y4788D01*
X20015Y4762D01*
X2489Y10490D02*
X2515D01*
X2540Y10516D01*
X2565Y10490D01*
X2591D01*
Y10516D01*
X2565Y10541D01*
X2591Y10566D01*
Y10592D01*
X2565D01*
X2540Y10566D01*
X2515Y10592D01*
X2489D01*
Y10566D01*
X2515Y10541D01*
X2489Y10516D01*
Y10490D01*
Y11390D02*
X2515D01*
X2540Y11416D01*
X2565Y11390D01*
X2591D01*
Y11416D01*
X2565Y11441D01*
X2591Y11466D01*
Y11492D01*
X2565D01*
X2540Y11466D01*
X2515Y11492D01*
X2489D01*
Y11466D01*
X2515Y11441D01*
X2489Y11416D01*
Y11390D01*
X7697Y10417D02*
X7722D01*
X7748Y10442D01*
X7773Y10417D01*
X7799D01*
Y10442D01*
X7773Y10467D01*
X7799Y10493D01*
Y10518D01*
X7773D01*
X7748Y10493D01*
X7722Y10518D01*
X7697D01*
Y10493D01*
X7722Y10467D01*
X7697Y10442D01*
Y10417D01*
Y11317D02*
X7722D01*
X7748Y11342D01*
X7773Y11317D01*
X7799D01*
Y11342D01*
X7773Y11367D01*
X7799Y11393D01*
Y11418D01*
X7773D01*
X7748Y11393D01*
X7722Y11418D01*
X7697D01*
Y11393D01*
X7722Y11367D01*
X7697Y11342D01*
Y11317D01*
X4826Y8883D02*
X4775Y8985D01*
X4877D01*
X4826Y8883D01*
Y8904D02*
X4796Y8964D01*
X4856D01*
X4826Y8904D01*
Y11633D02*
X4775Y11735D01*
X4877D01*
X4826Y11633D01*
Y11654D02*
X4796Y11714D01*
X4856D01*
X4826Y11654D01*
X20805Y416D02*
Y518D01*
X20907D01*
Y416D01*
X20805D01*
X21155D02*
Y518D01*
X21257D01*
Y416D01*
X21155D01*
X18872Y2380D02*
Y2482D01*
X18974D01*
Y2380D01*
X18872D01*
Y2731D02*
Y2832D01*
X18974D01*
Y2731D01*
X18872D01*
X20117Y3747D02*
Y3848D01*
X20218D01*
Y3747D01*
X20117D01*
X19767D02*
Y3848D01*
X19868D01*
Y3747D01*
X19767D01*
X17424Y620D02*
Y721D01*
X17526D01*
Y620D01*
X17424D01*
Y269D02*
Y371D01*
X17526D01*
Y269D01*
X17424D01*
X14064Y7252D02*
X14013Y7353D01*
X14115D01*
X14064Y7252D01*
Y7272D02*
X14034Y7333D01*
X14095D01*
X14064Y7272D01*
X16314Y7252D02*
X16263Y7353D01*
X16365D01*
X16314Y7252D01*
Y7272D02*
X16284Y7333D01*
X16345D01*
X16314Y7272D01*
X914Y8474D02*
X864Y8576D01*
X965D01*
X914Y8474D01*
Y8495D02*
X884Y8556D01*
X945D01*
X914Y8495D01*
Y9639D02*
X864Y9741D01*
X965D01*
X914Y9639D01*
Y9660D02*
X884Y9721D01*
X945D01*
X914Y9660D01*
X1219Y8474D02*
X1168Y8576D01*
X1270D01*
X1219Y8474D01*
Y8495D02*
X1189Y8556D01*
X1250D01*
X1219Y8495D01*
Y9639D02*
X1168Y9741D01*
X1270D01*
X1219Y9639D01*
Y9660D02*
X1189Y9721D01*
X1250D01*
X1219Y9660D01*
X2896Y7430D02*
X2921Y7455D01*
X2946D01*
X2921Y7480D01*
X2946Y7506D01*
X2921D01*
X2896Y7531D01*
X2870Y7506D01*
X2845D01*
X2870Y7480D01*
X2845Y7455D01*
X2870D01*
X2896Y7430D01*
Y7450D02*
X2911Y7465D01*
X2926D01*
X2911Y7480D01*
X2926Y7496D01*
X2911D01*
X2896Y7511D01*
X2880Y7496D01*
X2865D01*
X2880Y7480D01*
X2865Y7465D01*
X2880D01*
X2896Y7450D01*
Y9030D02*
X2921Y9055D01*
X2946D01*
X2921Y9081D01*
X2946Y9106D01*
X2921D01*
X2896Y9131D01*
X2870Y9106D01*
X2845D01*
X2870Y9081D01*
X2845Y9055D01*
X2870D01*
X2896Y9030D01*
Y9050D02*
X2911Y9065D01*
X2926D01*
X2911Y9081D01*
X2926Y9096D01*
X2911D01*
X2896Y9111D01*
X2880Y9096D01*
X2865D01*
X2880Y9081D01*
X2865Y9065D01*
X2880D01*
X2896Y9050D01*
X21742Y1511D02*
X21768Y1562D01*
X21742Y1613D01*
X21793Y1588D01*
X21844Y1613D01*
X21819Y1562D01*
X21844Y1511D01*
X21793Y1537D01*
X21742Y1511D01*
X20218D02*
X20244Y1562D01*
X20218Y1613D01*
X20269Y1588D01*
X20320Y1613D01*
X20295Y1562D01*
X20320Y1511D01*
X20269Y1537D01*
X20218Y1511D01*
X19456D02*
X19482Y1562D01*
X19456Y1613D01*
X19507Y1588D01*
X19558Y1613D01*
X19533Y1562D01*
X19558Y1511D01*
X19507Y1537D01*
X19456Y1511D01*
X21742Y3035D02*
X21768Y3086D01*
X21742Y3137D01*
X21793Y3111D01*
X21844Y3137D01*
X21819Y3086D01*
X21844Y3035D01*
X21793Y3061D01*
X21742Y3035D01*
X19456D02*
X19482Y3086D01*
X19456Y3137D01*
X19507Y3111D01*
X19558Y3137D01*
X19533Y3086D01*
X19558Y3035D01*
X19507Y3061D01*
X19456Y3035D01*
X20218D02*
X20244Y3086D01*
X20218Y3137D01*
X20269Y3111D01*
X20320Y3137D01*
X20295Y3086D01*
X20320Y3035D01*
X20269Y3061D01*
X20218Y3035D01*
X22250Y1511D02*
X22276Y1562D01*
X22250Y1613D01*
X22301Y1588D01*
X22352Y1613D01*
X22327Y1562D01*
X22352Y1511D01*
X22301Y1537D01*
X22250Y1511D01*
X21996D02*
X22022Y1562D01*
X21996Y1613D01*
X22047Y1588D01*
X22098Y1613D01*
X22073Y1562D01*
X22098Y1511D01*
X22047Y1537D01*
X21996Y1511D01*
X19964D02*
X19990Y1562D01*
X19964Y1613D01*
X20015Y1588D01*
X20066Y1613D01*
X20041Y1562D01*
X20066Y1511D01*
X20015Y1537D01*
X19964Y1511D01*
X19710D02*
X19736Y1562D01*
X19710Y1613D01*
X19761Y1588D01*
X19812Y1613D01*
X19787Y1562D01*
X19812Y1511D01*
X19761Y1537D01*
X19710Y1511D01*
X21996Y3035D02*
X22022Y3086D01*
X21996Y3137D01*
X22047Y3111D01*
X22098Y3137D01*
X22073Y3086D01*
X22098Y3035D01*
X22047Y3061D01*
X21996Y3035D01*
X22250D02*
X22276Y3086D01*
X22250Y3137D01*
X22301Y3111D01*
X22352Y3137D01*
X22327Y3086D01*
X22352Y3035D01*
X22301Y3061D01*
X22250Y3035D01*
X19710D02*
X19736Y3086D01*
X19710Y3137D01*
X19761Y3111D01*
X19812Y3137D01*
X19787Y3086D01*
X19812Y3035D01*
X19761Y3061D01*
X19710Y3035D01*
X19964D02*
X19990Y3086D01*
X19964Y3137D01*
X20015Y3111D01*
X20066Y3137D01*
X20041Y3086D01*
X20066Y3035D01*
X20015Y3061D01*
X19964Y3035D01*
X21438Y3543D02*
X21463Y3594D01*
X21438Y3645D01*
X21488Y3619D01*
X21539Y3645D01*
X21514Y3594D01*
X21539Y3543D01*
X21488Y3569D01*
X21438Y3543D01*
X22200D02*
X22225Y3594D01*
X22200Y3645D01*
X22250Y3619D01*
X22301Y3645D01*
X22276Y3594D01*
X22301Y3543D01*
X22250Y3569D01*
X22200Y3543D01*
X21184D02*
X21209Y3594D01*
X21184Y3645D01*
X21234Y3619D01*
X21285Y3645D01*
X21260Y3594D01*
X21285Y3543D01*
X21234Y3569D01*
X21184Y3543D01*
X20930D02*
X20955Y3594D01*
X20930Y3645D01*
X20980Y3619D01*
X21031Y3645D01*
X21006Y3594D01*
X21031Y3543D01*
X20980Y3569D01*
X20930Y3543D01*
X21946D02*
X21971Y3594D01*
X21946Y3645D01*
X21996Y3619D01*
X22047Y3645D01*
X22022Y3594D01*
X22047Y3543D01*
X21996Y3569D01*
X21946Y3543D01*
X1029Y13729D02*
X1054Y13779D01*
X1029Y13830D01*
X1080Y13805D01*
X1130Y13830D01*
X1105Y13779D01*
X1130Y13729D01*
X1080Y13754D01*
X1029Y13729D01*
X1049Y13749D02*
X1064Y13779D01*
X1049Y13810D01*
X1080Y13795D01*
X1110Y13810D01*
X1095Y13779D01*
X1110Y13749D01*
X1080Y13764D01*
X1049Y13749D01*
X2429Y13729D02*
X2454Y13779D01*
X2429Y13830D01*
X2480Y13805D01*
X2530Y13830D01*
X2505Y13779D01*
X2530Y13729D01*
X2480Y13754D01*
X2429Y13729D01*
X2449Y13749D02*
X2464Y13779D01*
X2449Y13810D01*
X2480Y13795D01*
X2510Y13810D01*
X2495Y13779D01*
X2510Y13749D01*
X2480Y13764D01*
X2449Y13749D01*
X14326Y343D02*
Y317D01*
X14376D01*
Y343D01*
X14402D01*
Y394D01*
X14376D01*
Y419D01*
X14326D01*
Y394D01*
X14300D01*
Y343D01*
X14326D01*
X14336Y353D02*
Y338D01*
X14366D01*
Y353D01*
X14381D01*
Y384D01*
X14366D01*
Y399D01*
X14336D01*
Y384D01*
X14321D01*
Y353D01*
X14336D01*
X14834Y343D02*
Y317D01*
X14884D01*
Y343D01*
X14910D01*
Y394D01*
X14884D01*
Y419D01*
X14834D01*
Y394D01*
X14808D01*
Y343D01*
X14834D01*
X14844Y353D02*
Y338D01*
X14874D01*
Y353D01*
X14889D01*
Y384D01*
X14874D01*
Y399D01*
X14844D01*
Y384D01*
X14829D01*
Y353D01*
X14844D01*
X14580Y343D02*
Y317D01*
X14630D01*
Y343D01*
X14656D01*
Y394D01*
X14630D01*
Y419D01*
X14580D01*
Y394D01*
X14554D01*
Y343D01*
X14580D01*
X14590Y353D02*
Y338D01*
X14620D01*
Y353D01*
X14635D01*
Y384D01*
X14620D01*
Y399D01*
X14590D01*
Y384D01*
X14575D01*
Y353D01*
X14590D01*
X14072Y343D02*
Y317D01*
X14122D01*
Y343D01*
X14148D01*
Y394D01*
X14122D01*
Y419D01*
X14072D01*
Y394D01*
X14046D01*
Y343D01*
X14072D01*
X14082Y353D02*
Y338D01*
X14112D01*
Y353D01*
X14127D01*
Y384D01*
X14112D01*
Y399D01*
X14082D01*
Y384D01*
X14067D01*
Y353D01*
X14082D01*
X13818Y343D02*
Y317D01*
X13868D01*
Y343D01*
X13894D01*
Y394D01*
X13868D01*
Y419D01*
X13818D01*
Y394D01*
X13792D01*
Y343D01*
X13818D01*
X13828Y353D02*
Y338D01*
X13858D01*
Y353D01*
X13873D01*
Y384D01*
X13858D01*
Y399D01*
X13828D01*
Y384D01*
X13813D01*
Y353D01*
X13828D01*
X15611Y1003D02*
X15636D01*
X15662Y1029D01*
X15687Y1003D01*
X15712D01*
Y1029D01*
X15687Y1054D01*
X15712Y1080D01*
Y1105D01*
X15687D01*
X15662Y1080D01*
X15636Y1105D01*
X15611D01*
Y1080D01*
X15636Y1054D01*
X15611Y1029D01*
Y1003D01*
X15631Y1024D02*
X15646D01*
X15662Y1039D01*
X15677Y1024D01*
X15692D01*
Y1039D01*
X15677Y1054D01*
X15692Y1069D01*
Y1085D01*
X15677D01*
X15662Y1069D01*
X15646Y1085D01*
X15631D01*
Y1069D01*
X15646Y1054D01*
X15631Y1039D01*
Y1024D01*
X16139Y1325D02*
Y1410D01*
X16181Y1452D01*
X16223Y1410D01*
Y1325D01*
Y1389D01*
X16139D01*
X16389Y1325D02*
Y1410D01*
X16431Y1452D01*
X16473Y1410D01*
Y1325D01*
Y1389D01*
X16389D01*
X16139Y1525D02*
Y1610D01*
X16181Y1652D01*
X16223Y1610D01*
Y1525D01*
Y1589D01*
X16139D01*
X16389Y1525D02*
Y1610D01*
X16431Y1652D01*
X16473Y1610D01*
Y1525D01*
Y1589D01*
X16389D01*
X16815Y1003D02*
X16840D01*
X16866Y1029D01*
X16891Y1003D01*
X16916D01*
Y1029D01*
X16891Y1054D01*
X16916Y1080D01*
Y1105D01*
X16891D01*
X16866Y1080D01*
X16840Y1105D01*
X16815D01*
Y1080D01*
X16840Y1054D01*
X16815Y1029D01*
Y1003D01*
X16835Y1024D02*
X16850D01*
X16866Y1039D01*
X16881Y1024D01*
X16896D01*
Y1039D01*
X16881Y1054D01*
X16896Y1069D01*
Y1085D01*
X16881D01*
X16866Y1069D01*
X16850Y1085D01*
X16835D01*
Y1069D01*
X16850Y1054D01*
X16835Y1039D01*
Y1024D01*
X5017Y13513D02*
Y13386D01*
X5080D01*
X5101Y13407D01*
Y13428D01*
X5080Y13449D01*
X5017D01*
X5080D01*
X5101Y13471D01*
Y13492D01*
X5080Y13513D01*
X5017D01*
X3216D02*
Y13386D01*
X3280D01*
X3301Y13407D01*
Y13428D01*
X3280Y13449D01*
X3216D01*
X3280D01*
X3301Y13471D01*
Y13492D01*
X3280Y13513D01*
X3216D01*
X5017Y15113D02*
Y14986D01*
X5080D01*
X5101Y15007D01*
Y15028D01*
X5080Y15049D01*
X5017D01*
X5080D01*
X5101Y15071D01*
Y15092D01*
X5080Y15113D01*
X5017D01*
X3216D02*
Y14986D01*
X3280D01*
X3301Y15007D01*
Y15028D01*
X3280Y15049D01*
X3216D01*
X3280D01*
X3301Y15071D01*
Y15092D01*
X3280Y15113D01*
X3216D01*
X5444Y855D02*
X5423Y876D01*
X5381D01*
X5359Y855D01*
Y770D01*
X5381Y749D01*
X5423D01*
X5444Y770D01*
X5952Y855D02*
X5931Y876D01*
X5889D01*
X5867Y855D01*
Y770D01*
X5889Y749D01*
X5931D01*
X5952Y770D01*
Y1363D02*
X5931Y1384D01*
X5889D01*
X5867Y1363D01*
Y1278D01*
X5889Y1257D01*
X5931D01*
X5952Y1278D01*
X4936Y1363D02*
X4915Y1384D01*
X4873D01*
X4851Y1363D01*
Y1278D01*
X4873Y1257D01*
X4915D01*
X4936Y1278D01*
X5444Y1871D02*
X5423Y1892D01*
X5381D01*
X5359Y1871D01*
Y1786D01*
X5381Y1765D01*
X5423D01*
X5444Y1786D01*
X4936Y1871D02*
X4915Y1892D01*
X4873D01*
X4851Y1871D01*
Y1786D01*
X4873Y1765D01*
X4915D01*
X4936Y1786D01*
X4597Y3924D02*
Y3797D01*
X4661D01*
X4682Y3818D01*
Y3903D01*
X4661Y3924D01*
X4597D01*
X5105Y4432D02*
Y4305D01*
X5169D01*
X5190Y4326D01*
Y4411D01*
X5169Y4432D01*
X5105D01*
X8238Y3649D02*
X8217Y3670D01*
X8175D01*
X8153Y3649D01*
Y3564D01*
X8175Y3543D01*
X8217D01*
X8238Y3564D01*
Y3141D02*
X8217Y3162D01*
X8175D01*
X8153Y3141D01*
Y3056D01*
X8175Y3035D01*
X8217D01*
X8238Y3056D01*
X7730Y3141D02*
X7709Y3162D01*
X7667D01*
X7645Y3141D01*
Y3056D01*
X7667Y3035D01*
X7709D01*
X7730Y3056D01*
X7222Y3649D02*
X7201Y3670D01*
X7159D01*
X7137Y3649D01*
Y3564D01*
X7159Y3543D01*
X7201D01*
X7222Y3564D01*
Y4157D02*
X7201Y4178D01*
X7159D01*
X7137Y4157D01*
Y4072D01*
X7159Y4051D01*
X7201D01*
X7222Y4072D01*
X7730Y4157D02*
X7709Y4178D01*
X7667D01*
X7645Y4157D01*
Y4072D01*
X7667Y4051D01*
X7709D01*
X7730Y4072D01*
X8407Y1130D02*
Y1003D01*
X8471D01*
X8492Y1024D01*
Y1109D01*
X8471Y1130D01*
X8407D01*
X7899Y622D02*
Y495D01*
X7963D01*
X7984Y516D01*
Y601D01*
X7963Y622D01*
X7899D01*
X5571Y1515D02*
X5550Y1537D01*
X5508D01*
X5486Y1515D01*
Y1431D01*
X5508Y1410D01*
X5550D01*
X5571Y1431D01*
X5825Y3569D02*
X5740D01*
Y3442D01*
X5825D01*
X5740Y3505D02*
X5783D01*
X6079Y3569D02*
X5994D01*
Y3442D01*
X6079D01*
X5994Y3505D02*
X6037D01*
X6079Y3315D02*
X5994D01*
Y3188D01*
X6079D01*
X5994Y3251D02*
X6037D01*
X5825Y3061D02*
X5740D01*
Y2934D01*
X5825D01*
X5740Y2997D02*
X5783D01*
X5571Y3315D02*
X5486D01*
Y3188D01*
X5571D01*
X5486Y3251D02*
X5529D01*
X5571Y3061D02*
X5486D01*
Y2934D01*
X5571D01*
X5486Y2997D02*
X5529D01*
X7095Y1537D02*
X7010D01*
Y1410D01*
X7095D01*
X7010Y1473D02*
X7053D01*
X7349Y1537D02*
X7264D01*
Y1410D01*
X7349D01*
X7264Y1473D02*
X7307D01*
X7095Y1791D02*
X7010D01*
Y1664D01*
X7095D01*
X7010Y1727D02*
X7053D01*
X7349Y2045D02*
X7264D01*
Y1918D01*
X7349D01*
X7264Y1981D02*
X7307D01*
X7603Y2045D02*
X7518D01*
Y1918D01*
X7603D01*
X7518Y1981D02*
X7561D01*
X7603Y1791D02*
X7518D01*
Y1664D01*
X7603D01*
X7518Y1727D02*
X7561D01*
X7603Y3547D02*
X7582Y3569D01*
X7540D01*
X7518Y3547D01*
Y3463D01*
X7540Y3442D01*
X7582D01*
X7603Y3463D01*
X3793Y3547D02*
X3772Y3569D01*
X3730D01*
X3708Y3547D01*
Y3463D01*
X3730Y3442D01*
X3772D01*
X3793Y3463D01*
X3539Y1537D02*
X3454D01*
Y1410D01*
X3539D01*
X3454Y1473D02*
X3497D01*
X3285Y1537D02*
X3200D01*
Y1410D01*
X3285D01*
X3200Y1473D02*
X3243D01*
X3285Y1791D02*
X3200D01*
Y1664D01*
X3285D01*
X3200Y1727D02*
X3243D01*
X3539Y2045D02*
X3454D01*
Y1918D01*
X3539D01*
X3454Y1981D02*
X3497D01*
X3793Y1791D02*
X3708D01*
Y1664D01*
X3793D01*
X3708Y1727D02*
X3751D01*
X3793Y2045D02*
X3708D01*
Y1918D01*
X3793D01*
X3708Y1981D02*
X3751D01*
X2269Y3569D02*
X2184D01*
Y3442D01*
X2269D01*
X2184Y3505D02*
X2227D01*
X2015Y3569D02*
X1930D01*
Y3442D01*
X2015D01*
X1930Y3505D02*
X1973D01*
X2269Y3315D02*
X2184D01*
Y3188D01*
X2269D01*
X2184Y3251D02*
X2227D01*
X2015Y3061D02*
X1930D01*
Y2934D01*
X2015D01*
X1930Y2997D02*
X1973D01*
X1761Y3061D02*
X1676D01*
Y2934D01*
X1761D01*
X1676Y2997D02*
X1719D01*
X1761Y3315D02*
X1676D01*
Y3188D01*
X1761D01*
X1676Y3251D02*
X1719D01*
X1761Y1515D02*
X1740Y1537D01*
X1698D01*
X1676Y1515D01*
Y1431D01*
X1698Y1410D01*
X1740D01*
X1761Y1431D01*
X1634Y868D02*
X1613Y889D01*
X1571D01*
X1549Y868D01*
Y783D01*
X1571Y762D01*
X1613D01*
X1634Y783D01*
X2142Y868D02*
X2121Y889D01*
X2079D01*
X2057Y868D01*
Y783D01*
X2079Y762D01*
X2121D01*
X2142Y783D01*
Y1376D02*
X2121Y1397D01*
X2079D01*
X2057Y1376D01*
Y1291D01*
X2079Y1270D01*
X2121D01*
X2142Y1291D01*
X1126Y1376D02*
X1105Y1397D01*
X1063D01*
X1041Y1376D01*
Y1291D01*
X1063Y1270D01*
X1105D01*
X1126Y1291D01*
X1634Y1884D02*
X1613Y1905D01*
X1571D01*
X1549Y1884D01*
Y1799D01*
X1571Y1778D01*
X1613D01*
X1634Y1799D01*
X1126Y1884D02*
X1105Y1905D01*
X1063D01*
X1041Y1884D01*
Y1799D01*
X1063Y1778D01*
X1105D01*
X1126Y1799D01*
X787Y3937D02*
Y3810D01*
X851D01*
X872Y3831D01*
Y3916D01*
X851Y3937D01*
X787D01*
X1295Y4445D02*
Y4318D01*
X1359D01*
X1380Y4339D01*
Y4424D01*
X1359Y4445D01*
X1295D01*
X4428Y3662D02*
X4407Y3683D01*
X4365D01*
X4343Y3662D01*
Y3577D01*
X4365Y3556D01*
X4407D01*
X4428Y3577D01*
Y3154D02*
X4407Y3175D01*
X4365D01*
X4343Y3154D01*
Y3069D01*
X4365Y3048D01*
X4407D01*
X4428Y3069D01*
X3920Y3154D02*
X3899Y3175D01*
X3857D01*
X3835Y3154D01*
Y3069D01*
X3857Y3048D01*
X3899D01*
X3920Y3069D01*
X3412Y3662D02*
X3391Y3683D01*
X3349D01*
X3327Y3662D01*
Y3577D01*
X3349Y3556D01*
X3391D01*
X3412Y3577D01*
Y4170D02*
X3391Y4191D01*
X3349D01*
X3327Y4170D01*
Y4085D01*
X3349Y4064D01*
X3391D01*
X3412Y4085D01*
X3920Y4170D02*
X3899Y4191D01*
X3857D01*
X3835Y4170D01*
Y4085D01*
X3857Y4064D01*
X3899D01*
X3920Y4085D01*
X4597Y1143D02*
Y1016D01*
X4661D01*
X4682Y1037D01*
Y1122D01*
X4661Y1143D01*
X4597D01*
X4089Y635D02*
Y508D01*
X4153D01*
X4174Y529D01*
Y614D01*
X4153Y635D01*
X4089D01*
X7745Y13786D02*
X7694Y13888D01*
X7796D01*
X7745Y13786D01*
Y13807D02*
X7715Y13867D01*
X7775D01*
X7745Y13807D01*
X7495Y13036D02*
X7444Y13138D01*
X7546D01*
X7495Y13036D01*
Y13057D02*
X7465Y13117D01*
X7525D01*
X7495Y13057D01*
X1482Y14541D02*
X1397D01*
Y14478D01*
X1439D01*
X1397D01*
Y14415D01*
X2498Y14541D02*
X2413D01*
Y14478D01*
X2455D01*
X2413D01*
Y14415D01*
X1990Y14541D02*
X1905D01*
Y14478D01*
X1947D01*
X1905D01*
Y14415D01*
X8175Y9157D02*
X8090D01*
Y9030D01*
X8175D01*
X8090Y9093D02*
X8132D01*
X8683Y9157D02*
X8598D01*
Y9030D01*
X8683D01*
X8598Y9093D02*
X8640D01*
X9279Y13335D02*
X9195D01*
Y13208D01*
X9279D01*
X9195Y13271D02*
X9237D01*
X9279Y13843D02*
X9195D01*
Y13716D01*
X9279D01*
X9195Y13779D02*
X9237D01*
X19795Y1160D02*
X19774Y1181D01*
X19732D01*
X19710Y1160D01*
Y1075D01*
X19732Y1054D01*
X19774D01*
X19795Y1075D01*
Y1118D01*
X19753D01*
X20303Y1160D02*
X20282Y1181D01*
X20240D01*
X20218Y1160D01*
Y1075D01*
X20240Y1054D01*
X20282D01*
X20303Y1075D01*
Y1118D01*
X20261D01*
X9483Y14618D02*
X9398D01*
Y14491D01*
X9483D01*
X9398Y14554D02*
X9440D01*
X9483Y15126D02*
X9398D01*
Y14999D01*
X9483D01*
X9398Y15062D02*
X9440D01*
X11464Y14859D02*
X11379D01*
Y14732D01*
X11464D01*
X11379Y14795D02*
X11422D01*
X11972Y14859D02*
X11887D01*
Y14732D01*
X11972D01*
X11887Y14795D02*
X11930D01*
X21738Y7226D02*
X21654D01*
Y7099D01*
X21738D01*
X21654Y7163D02*
X21696D01*
X22246Y7226D02*
X22162D01*
Y7099D01*
X22246D01*
X22162Y7163D02*
X22204D01*
X21624Y5093D02*
X21539D01*
Y5029D01*
X21582D01*
X21539D01*
Y4966D01*
X21624Y6617D02*
X21539D01*
Y6553D01*
X21582D01*
X21539D01*
Y6490D01*
X21624Y5601D02*
X21539D01*
Y5537D01*
X21582D01*
X21539D01*
Y5474D01*
X21624Y6109D02*
X21539D01*
Y6045D01*
X21582D01*
X21539D01*
Y5982D01*
X22272Y4534D02*
X22187D01*
Y4407D01*
X22272D01*
X22187Y4470D02*
X22229D01*
X21764Y4534D02*
X21679D01*
Y4407D01*
X21764D01*
X21679Y4470D02*
X21721D01*
X1346Y6718D02*
X1372Y6769D01*
X1346Y6820D01*
X1397Y6794D01*
X1448Y6820D01*
X1422Y6769D01*
X1448Y6718D01*
X1397Y6744D01*
X1346Y6718D01*
X2362D02*
X2388Y6769D01*
X2362Y6820D01*
X2413Y6794D01*
X2464Y6820D01*
X2438Y6769D01*
X2464Y6718D01*
X2413Y6744D01*
X2362Y6718D01*
X152D02*
X178Y6769D01*
X152Y6820D01*
X203Y6794D01*
X254Y6820D01*
X229Y6769D01*
X254Y6718D01*
X203Y6744D01*
X152Y6718D01*
X1168D02*
X1194Y6769D01*
X1168Y6820D01*
X1219Y6794D01*
X1270Y6820D01*
X1245Y6769D01*
X1270Y6718D01*
X1219Y6744D01*
X1168Y6718D01*
X178Y5220D02*
X203Y5271D01*
X178Y5321D01*
X229Y5296D01*
X279Y5321D01*
X254Y5271D01*
X279Y5220D01*
X229Y5245D01*
X178Y5220D01*
Y6236D02*
X203Y6287D01*
X178Y6337D01*
X229Y6312D01*
X279Y6337D01*
X254Y6287D01*
X279Y6236D01*
X229Y6261D01*
X178Y6236D01*
X914Y7252D02*
X940Y7303D01*
X914Y7353D01*
X965Y7328D01*
X1016Y7353D01*
X991Y7303D01*
X1016Y7252D01*
X965Y7277D01*
X914Y7252D01*
Y8268D02*
X940Y8318D01*
X914Y8369D01*
X965Y8344D01*
X1016Y8369D01*
X991Y8318D01*
X1016Y8268D01*
X965Y8293D01*
X914Y8268D01*
X1219Y7252D02*
X1245Y7303D01*
X1219Y7353D01*
X1270Y7328D01*
X1321Y7353D01*
X1295Y7303D01*
X1321Y7252D01*
X1270Y7277D01*
X1219Y7252D01*
Y8268D02*
X1245Y8318D01*
X1219Y8369D01*
X1270Y8344D01*
X1321Y8369D01*
X1295Y8318D01*
X1321Y8268D01*
X1270Y8293D01*
X1219Y8268D01*
X1524Y7252D02*
X1549Y7303D01*
X1524Y7353D01*
X1575Y7328D01*
X1626Y7353D01*
X1600Y7303D01*
X1626Y7252D01*
X1575Y7277D01*
X1524Y7252D01*
Y8268D02*
X1549Y8318D01*
X1524Y8369D01*
X1575Y8344D01*
X1626Y8369D01*
X1600Y8318D01*
X1626Y8268D01*
X1575Y8293D01*
X1524Y8268D01*
X1829Y7252D02*
X1854Y7303D01*
X1829Y7353D01*
X1880Y7328D01*
X1930Y7353D01*
X1905Y7303D01*
X1930Y7252D01*
X1880Y7277D01*
X1829Y7252D01*
Y8268D02*
X1854Y8318D01*
X1829Y8369D01*
X1880Y8344D01*
X1930Y8369D01*
X1905Y8318D01*
X1930Y8268D01*
X1880Y8293D01*
X1829Y8268D01*
X305D02*
X330Y8318D01*
X305Y8369D01*
X356Y8344D01*
X406Y8369D01*
X381Y8318D01*
X406Y8268D01*
X356Y8293D01*
X305Y8268D01*
Y7252D02*
X330Y7303D01*
X305Y7353D01*
X356Y7328D01*
X406Y7353D01*
X381Y7303D01*
X406Y7252D01*
X356Y7277D01*
X305Y7252D01*
X610D02*
X635Y7303D01*
X610Y7353D01*
X660Y7328D01*
X711Y7353D01*
X686Y7303D01*
X711Y7252D01*
X660Y7277D01*
X610Y7252D01*
Y8268D02*
X635Y8318D01*
X610Y8369D01*
X660Y8344D01*
X711Y8369D01*
X686Y8318D01*
X711Y8268D01*
X660Y8293D01*
X610Y8268D01*
X965Y6312D02*
X991Y6363D01*
X965Y6414D01*
X1016Y6388D01*
X1067Y6414D01*
X1041Y6363D01*
X1067Y6312D01*
X1016Y6337D01*
X965Y6312D01*
X1981D02*
X2007Y6363D01*
X1981Y6414D01*
X2032Y6388D01*
X2083Y6414D01*
X2057Y6363D01*
X2083Y6312D01*
X2032Y6337D01*
X1981Y6312D01*
X965Y6007D02*
X991Y6058D01*
X965Y6109D01*
X1016Y6083D01*
X1067Y6109D01*
X1041Y6058D01*
X1067Y6007D01*
X1016Y6033D01*
X965Y6007D01*
X1981D02*
X2007Y6058D01*
X1981Y6109D01*
X2032Y6083D01*
X2083Y6109D01*
X2057Y6058D01*
X2083Y6007D01*
X2032Y6033D01*
X1981Y6007D01*
X965Y5702D02*
X991Y5753D01*
X965Y5804D01*
X1016Y5778D01*
X1067Y5804D01*
X1041Y5753D01*
X1067Y5702D01*
X1016Y5728D01*
X965Y5702D01*
X1981D02*
X2007Y5753D01*
X1981Y5804D01*
X2032Y5778D01*
X2083Y5804D01*
X2057Y5753D01*
X2083Y5702D01*
X2032Y5728D01*
X1981Y5702D01*
X965Y5397D02*
X991Y5448D01*
X965Y5499D01*
X1016Y5474D01*
X1067Y5499D01*
X1041Y5448D01*
X1067Y5397D01*
X1016Y5423D01*
X965Y5397D01*
X1981D02*
X2007Y5448D01*
X1981Y5499D01*
X2032Y5474D01*
X2083Y5499D01*
X2057Y5448D01*
X2083Y5397D01*
X2032Y5423D01*
X1981Y5397D01*
Y5093D02*
X2007Y5144D01*
X1981Y5194D01*
X2032Y5169D01*
X2083Y5194D01*
X2057Y5144D01*
X2083Y5093D01*
X2032Y5118D01*
X1981Y5093D01*
X965D02*
X991Y5144D01*
X965Y5194D01*
X1016Y5169D01*
X1067Y5194D01*
X1041Y5144D01*
X1067Y5093D01*
X1016Y5118D01*
X965Y5093D01*
X16205Y6667D02*
Y6540D01*
Y6604D01*
X16290D01*
Y6667D01*
Y6540D01*
X14205Y6667D02*
Y6540D01*
Y6604D01*
X14290D01*
Y6667D01*
Y6540D01*
X6934Y7074D02*
X6985Y7125D01*
X7036Y7074D01*
X6985Y7023D01*
X6934Y7074D01*
X7480Y5133D02*
Y5235D01*
X7581D01*
Y5133D01*
X7480D01*
X7500Y5153D02*
Y5214D01*
X7561D01*
Y5153D01*
X7500D01*
X6935Y4833D02*
Y4935D01*
X7036D01*
Y4833D01*
X6935D01*
X6955Y4853D02*
Y4914D01*
X7016D01*
Y4853D01*
X6955D01*
X6390Y5133D02*
Y5235D01*
X6491D01*
Y5133D01*
X6390D01*
X6410Y5153D02*
Y5214D01*
X6471D01*
Y5153D01*
X6410D01*
X3596Y5133D02*
Y5235D01*
X3697D01*
Y5133D01*
X3596D01*
X3616Y5153D02*
Y5214D01*
X3677D01*
Y5153D01*
X3616D01*
X4141Y4833D02*
Y4935D01*
X4242D01*
Y4833D01*
X4141D01*
X4161Y4853D02*
Y4914D01*
X4222D01*
Y4853D01*
X4161D01*
X4686Y5133D02*
Y5235D01*
X4787D01*
Y5133D01*
X4686D01*
X4706Y5153D02*
Y5214D01*
X4767D01*
Y5153D01*
X4706D01*
X4140Y7074D02*
X4191Y7125D01*
X4242Y7074D01*
X4191Y7023D01*
X4140Y7074D01*
X9728Y10096D02*
X9779Y10147D01*
X9830Y10096D01*
X9779Y10046D01*
X9728Y10096D01*
X11618Y10591D02*
Y10693D01*
X11720D01*
Y10591D01*
X11618D01*
X11639Y10612D02*
Y10673D01*
X11699D01*
Y10612D01*
X11639D01*
X11918Y10046D02*
Y10148D01*
X12020D01*
Y10046D01*
X11918D01*
X11939Y10067D02*
Y10128D01*
X11999D01*
Y10067D01*
X11939D01*
X11618Y9501D02*
Y9603D01*
X11720D01*
Y9501D01*
X11618D01*
X11639Y9522D02*
Y9583D01*
X11699D01*
Y9522D01*
X11639D01*
X11618Y11152D02*
Y11254D01*
X11720D01*
Y11152D01*
X11618D01*
X11639Y11173D02*
Y11234D01*
X11699D01*
Y11173D01*
X11639D01*
X11918Y11697D02*
Y11799D01*
X12020D01*
Y11697D01*
X11918D01*
X11939Y11718D02*
Y11779D01*
X11999D01*
Y11718D01*
X11939D01*
X11618Y12242D02*
Y12344D01*
X11720D01*
Y12242D01*
X11618D01*
X11639Y12263D02*
Y12324D01*
X11699D01*
Y12263D01*
X11639D01*
X9728Y11747D02*
X9779Y11798D01*
X9830Y11747D01*
X9779Y11697D01*
X9728Y11747D01*
X12890Y8445D02*
X12933D01*
X12912D01*
Y8318D01*
X12890D01*
X12933D01*
X17412Y8268D02*
X17437D01*
X17462Y8293D01*
X17488Y8268D01*
X17513D01*
Y8293D01*
X17488Y8318D01*
X17513Y8344D01*
Y8369D01*
X17488D01*
X17462Y8344D01*
X17437Y8369D01*
X17412D01*
Y8344D01*
X17437Y8318D01*
X17412Y8293D01*
Y8268D01*
X12840Y13856D02*
X12865D01*
X12890Y13881D01*
X12916Y13856D01*
X12941D01*
Y13881D01*
X12916Y13907D01*
X12941Y13932D01*
Y13957D01*
X12916D01*
X12890Y13932D01*
X12865Y13957D01*
X12840D01*
Y13932D01*
X12865Y13907D01*
X12840Y13881D01*
Y13856D01*
Y13348D02*
X12865D01*
X12890Y13373D01*
X12916Y13348D01*
X12941D01*
Y13373D01*
X12916Y13399D01*
X12941Y13424D01*
Y13449D01*
X12916D01*
X12890Y13424D01*
X12865Y13449D01*
X12840D01*
Y13424D01*
X12865Y13399D01*
X12840Y13373D01*
Y13348D01*
Y12840D02*
X12865D01*
X12890Y12865D01*
X12916Y12840D01*
X12941D01*
Y12865D01*
X12916Y12890D01*
X12941Y12916D01*
Y12941D01*
X12916D01*
X12890Y12916D01*
X12865Y12941D01*
X12840D01*
Y12916D01*
X12865Y12890D01*
X12840Y12865D01*
Y12840D01*
Y12332D02*
X12865D01*
X12890Y12357D01*
X12916Y12332D01*
X12941D01*
Y12357D01*
X12916Y12382D01*
X12941Y12408D01*
Y12433D01*
X12916D01*
X12890Y12408D01*
X12865Y12433D01*
X12840D01*
Y12408D01*
X12865Y12382D01*
X12840Y12357D01*
Y12332D01*
Y11824D02*
X12865D01*
X12890Y11849D01*
X12916Y11824D01*
X12941D01*
Y11849D01*
X12916Y11875D01*
X12941Y11900D01*
Y11925D01*
X12916D01*
X12890Y11900D01*
X12865Y11925D01*
X12840D01*
Y11900D01*
X12865Y11875D01*
X12840Y11849D01*
Y11824D01*
Y11316D02*
X12865D01*
X12890Y11341D01*
X12916Y11316D01*
X12941D01*
Y11341D01*
X12916Y11367D01*
X12941Y11392D01*
Y11417D01*
X12916D01*
X12890Y11392D01*
X12865Y11417D01*
X12840D01*
Y11392D01*
X12865Y11367D01*
X12840Y11341D01*
Y11316D01*
Y10808D02*
X12865D01*
X12890Y10833D01*
X12916Y10808D01*
X12941D01*
Y10833D01*
X12916Y10858D01*
X12941Y10884D01*
Y10909D01*
X12916D01*
X12890Y10884D01*
X12865Y10909D01*
X12840D01*
Y10884D01*
X12865Y10858D01*
X12840Y10833D01*
Y10808D01*
Y10300D02*
X12865D01*
X12890Y10325D01*
X12916Y10300D01*
X12941D01*
Y10325D01*
X12916Y10350D01*
X12941Y10376D01*
Y10401D01*
X12916D01*
X12890Y10376D01*
X12865Y10401D01*
X12840D01*
Y10376D01*
X12865Y10350D01*
X12840Y10325D01*
Y10300D01*
Y9792D02*
X12865D01*
X12890Y9817D01*
X12916Y9792D01*
X12941D01*
Y9817D01*
X12916Y9843D01*
X12941Y9868D01*
Y9893D01*
X12916D01*
X12890Y9868D01*
X12865Y9893D01*
X12840D01*
Y9868D01*
X12865Y9843D01*
X12840Y9817D01*
Y9792D01*
Y9284D02*
X12865D01*
X12890Y9309D01*
X12916Y9284D01*
X12941D01*
Y9309D01*
X12916Y9335D01*
X12941Y9360D01*
Y9385D01*
X12916D01*
X12890Y9360D01*
X12865Y9385D01*
X12840D01*
Y9360D01*
X12865Y9335D01*
X12840Y9309D01*
Y9284D01*
Y8776D02*
X12865D01*
X12890Y8801D01*
X12916Y8776D01*
X12941D01*
Y8801D01*
X12916Y8826D01*
X12941Y8852D01*
Y8877D01*
X12916D01*
X12890Y8852D01*
X12865Y8877D01*
X12840D01*
Y8852D01*
X12865Y8826D01*
X12840Y8801D01*
Y8776D01*
X17412D02*
X17437D01*
X17462Y8801D01*
X17488Y8776D01*
X17513D01*
Y8801D01*
X17488Y8826D01*
X17513Y8852D01*
Y8877D01*
X17488D01*
X17462Y8852D01*
X17437Y8877D01*
X17412D01*
Y8852D01*
X17437Y8826D01*
X17412Y8801D01*
Y8776D01*
Y9284D02*
X17437D01*
X17462Y9309D01*
X17488Y9284D01*
X17513D01*
Y9309D01*
X17488Y9335D01*
X17513Y9360D01*
Y9385D01*
X17488D01*
X17462Y9360D01*
X17437Y9385D01*
X17412D01*
Y9360D01*
X17437Y9335D01*
X17412Y9309D01*
Y9284D01*
Y9792D02*
X17437D01*
X17462Y9817D01*
X17488Y9792D01*
X17513D01*
Y9817D01*
X17488Y9843D01*
X17513Y9868D01*
Y9893D01*
X17488D01*
X17462Y9868D01*
X17437Y9893D01*
X17412D01*
Y9868D01*
X17437Y9843D01*
X17412Y9817D01*
Y9792D01*
Y10300D02*
X17437D01*
X17462Y10325D01*
X17488Y10300D01*
X17513D01*
Y10325D01*
X17488Y10350D01*
X17513Y10376D01*
Y10401D01*
X17488D01*
X17462Y10376D01*
X17437Y10401D01*
X17412D01*
Y10376D01*
X17437Y10350D01*
X17412Y10325D01*
Y10300D01*
Y10808D02*
X17437D01*
X17462Y10833D01*
X17488Y10808D01*
X17513D01*
Y10833D01*
X17488Y10858D01*
X17513Y10884D01*
Y10909D01*
X17488D01*
X17462Y10884D01*
X17437Y10909D01*
X17412D01*
Y10884D01*
X17437Y10858D01*
X17412Y10833D01*
Y10808D01*
Y11316D02*
X17437D01*
X17462Y11341D01*
X17488Y11316D01*
X17513D01*
Y11341D01*
X17488Y11367D01*
X17513Y11392D01*
Y11417D01*
X17488D01*
X17462Y11392D01*
X17437Y11417D01*
X17412D01*
Y11392D01*
X17437Y11367D01*
X17412Y11341D01*
Y11316D01*
Y11824D02*
X17437D01*
X17462Y11849D01*
X17488Y11824D01*
X17513D01*
Y11849D01*
X17488Y11875D01*
X17513Y11900D01*
Y11925D01*
X17488D01*
X17462Y11900D01*
X17437Y11925D01*
X17412D01*
Y11900D01*
X17437Y11875D01*
X17412Y11849D01*
Y11824D01*
Y12332D02*
X17437D01*
X17462Y12357D01*
X17488Y12332D01*
X17513D01*
Y12357D01*
X17488Y12382D01*
X17513Y12408D01*
Y12433D01*
X17488D01*
X17462Y12408D01*
X17437Y12433D01*
X17412D01*
Y12408D01*
X17437Y12382D01*
X17412Y12357D01*
Y12332D01*
Y12840D02*
X17437D01*
X17462Y12865D01*
X17488Y12840D01*
X17513D01*
Y12865D01*
X17488Y12890D01*
X17513Y12916D01*
Y12941D01*
X17488D01*
X17462Y12916D01*
X17437Y12941D01*
X17412D01*
Y12916D01*
X17437Y12890D01*
X17412Y12865D01*
Y12840D01*
Y13348D02*
X17437D01*
X17462Y13373D01*
X17488Y13348D01*
X17513D01*
Y13373D01*
X17488Y13399D01*
X17513Y13424D01*
Y13449D01*
X17488D01*
X17462Y13424D01*
X17437Y13449D01*
X17412D01*
Y13424D01*
X17437Y13399D01*
X17412Y13373D01*
Y13348D01*
X17462Y14033D02*
X17505D01*
X17484D01*
Y13907D01*
X17462D01*
X17505D01*
X2172Y12844D02*
X2122Y12945D01*
X2223D01*
X2172Y12844D01*
Y12864D02*
X2142Y12925D01*
X2203D01*
X2172Y12864D01*
X1422Y13094D02*
X1372Y13195D01*
X1473D01*
X1422Y13094D01*
Y13114D02*
X1392Y13175D01*
X1453D01*
X1422Y13114D01*
X9728Y13399D02*
X9779Y13449D01*
X9830Y13399D01*
X9779Y13348D01*
X9728Y13399D01*
X11618Y13893D02*
Y13995D01*
X11720D01*
Y13893D01*
X11618D01*
X11639Y13914D02*
Y13975D01*
X11699D01*
Y13914D01*
X11639D01*
X11918Y13348D02*
Y13450D01*
X12020D01*
Y13348D01*
X11918D01*
X11939Y13369D02*
Y13430D01*
X11999D01*
Y13369D01*
X11939D01*
X11618Y12803D02*
Y12905D01*
X11720D01*
Y12803D01*
X11618D01*
X11639Y12824D02*
Y12885D01*
X11699D01*
Y12824D01*
X11639D01*
X11618Y7850D02*
Y7952D01*
X11720D01*
Y7850D01*
X11618D01*
X11639Y7871D02*
Y7932D01*
X11699D01*
Y7871D01*
X11639D01*
X11918Y8395D02*
Y8497D01*
X12020D01*
Y8395D01*
X11918D01*
X11939Y8416D02*
Y8477D01*
X11999D01*
Y8416D01*
X11939D01*
X11618Y8940D02*
Y9042D01*
X11720D01*
Y8940D01*
X11618D01*
X11639Y8961D02*
Y9022D01*
X11699D01*
Y8961D01*
X11639D01*
X9728Y8446D02*
X9779Y8496D01*
X9830Y8446D01*
X9779Y8395D01*
X9728Y8446D01*
X6978Y8763D02*
X6936D01*
X6957D01*
Y8657D01*
X6936Y8636D01*
X6915D01*
X6894Y8657D01*
X6978Y8255D02*
X6936D01*
X6957D01*
Y8149D01*
X6936Y8128D01*
X6915D01*
X6894Y8149D01*
X8382Y8331D02*
X8407Y8357D01*
X8433D01*
X8407Y8382D01*
X8433Y8407D01*
X8407D01*
X8382Y8433D01*
X8357Y8407D01*
X8331D01*
X8357Y8382D01*
X8331Y8357D01*
X8357D01*
X8382Y8331D01*
X4184Y8826D02*
X4142D01*
X4163D01*
Y8721D01*
X4142Y8700D01*
X4121D01*
X4100Y8721D01*
X4184Y8318D02*
X4142D01*
X4163D01*
Y8213D01*
X4142Y8192D01*
X4121D01*
X4100Y8213D01*
X5588Y8395D02*
X5613Y8420D01*
X5639D01*
X5613Y8446D01*
X5639Y8471D01*
X5613D01*
X5588Y8496D01*
X5563Y8471D01*
X5537D01*
X5563Y8446D01*
X5537Y8420D01*
X5563D01*
X5588Y8395D01*
X14884Y14999D02*
Y14872D01*
Y14935D01*
X14969D01*
Y14999D01*
Y14872D01*
X12884Y14999D02*
Y14872D01*
Y14935D01*
X12969D01*
Y14999D01*
Y14872D01*
X15131Y14821D02*
X15080Y14923D01*
X15182D01*
X15131Y14821D01*
Y14841D02*
X15101Y14902D01*
X15161D01*
X15131Y14841D01*
X17381Y14821D02*
X17330Y14923D01*
X17432D01*
X17381Y14821D01*
Y14841D02*
X17351Y14902D01*
X17411D01*
X17381Y14841D01*
X9144Y5143D02*
Y5017D01*
Y5059D01*
X9229Y5143D01*
X9165Y5080D01*
X9229Y5017D01*
X9398Y5143D02*
Y5017D01*
Y5059D01*
X9483Y5143D01*
X9419Y5080D01*
X9483Y5017D01*
X9652Y5143D02*
Y5017D01*
Y5059D01*
X9737Y5143D01*
X9673Y5080D01*
X9737Y5017D01*
X9906Y5143D02*
Y5017D01*
Y5059D01*
X9991Y5143D01*
X9927Y5080D01*
X9991Y5017D01*
X10160Y5143D02*
Y5017D01*
Y5059D01*
X10245Y5143D01*
X10181Y5080D01*
X10245Y5017D01*
X10414Y5143D02*
Y5017D01*
Y5059D01*
X10499Y5143D01*
X10435Y5080D01*
X10499Y5017D01*
X10668Y5143D02*
Y5017D01*
Y5059D01*
X10753Y5143D01*
X10689Y5080D01*
X10753Y5017D01*
X10922Y5143D02*
Y5017D01*
Y5059D01*
X11007Y5143D01*
X10943Y5080D01*
X11007Y5017D01*
X11176Y5143D02*
Y5017D01*
Y5059D01*
X11261Y5143D01*
X11197Y5080D01*
X11261Y5017D01*
X11176Y4889D02*
Y4762D01*
Y4805D01*
X11261Y4889D01*
X11197Y4826D01*
X11261Y4762D01*
X10922Y4889D02*
Y4762D01*
Y4805D01*
X11007Y4889D01*
X10943Y4826D01*
X11007Y4762D01*
X10668Y4889D02*
Y4762D01*
Y4805D01*
X10753Y4889D01*
X10689Y4826D01*
X10753Y4762D01*
X10414Y4889D02*
Y4762D01*
Y4805D01*
X10499Y4889D01*
X10435Y4826D01*
X10499Y4762D01*
X10160Y4889D02*
Y4762D01*
Y4805D01*
X10245Y4889D01*
X10181Y4826D01*
X10245Y4762D01*
X9906Y4889D02*
Y4762D01*
Y4805D01*
X9991Y4889D01*
X9927Y4826D01*
X9991Y4762D01*
X9652Y4889D02*
Y4762D01*
Y4805D01*
X9737Y4889D01*
X9673Y4826D01*
X9737Y4762D01*
X9398Y4889D02*
Y4762D01*
Y4805D01*
X9483Y4889D01*
X9419Y4826D01*
X9483Y4762D01*
X9144Y4889D02*
Y4762D01*
Y4805D01*
X9229Y4889D01*
X9165Y4826D01*
X9229Y4762D01*
X11176Y4635D02*
Y4508D01*
Y4551D01*
X11261Y4635D01*
X11197Y4572D01*
X11261Y4508D01*
X10922Y4635D02*
Y4508D01*
Y4551D01*
X11007Y4635D01*
X10943Y4572D01*
X11007Y4508D01*
X10668Y4635D02*
Y4508D01*
Y4551D01*
X10753Y4635D01*
X10689Y4572D01*
X10753Y4508D01*
X10414Y4635D02*
Y4508D01*
Y4551D01*
X10499Y4635D01*
X10435Y4572D01*
X10499Y4508D01*
X10160Y4635D02*
Y4508D01*
Y4551D01*
X10245Y4635D01*
X10181Y4572D01*
X10245Y4508D01*
X9906Y4635D02*
Y4508D01*
Y4551D01*
X9991Y4635D01*
X9927Y4572D01*
X9991Y4508D01*
X9652Y4635D02*
Y4508D01*
Y4551D01*
X9737Y4635D01*
X9673Y4572D01*
X9737Y4508D01*
X9398Y4635D02*
Y4508D01*
Y4551D01*
X9483Y4635D01*
X9419Y4572D01*
X9483Y4508D01*
X9144Y4635D02*
Y4508D01*
Y4551D01*
X9229Y4635D01*
X9165Y4572D01*
X9229Y4508D01*
X11176Y4381D02*
Y4254D01*
Y4297D01*
X11261Y4381D01*
X11197Y4318D01*
X11261Y4254D01*
X10922Y4381D02*
Y4254D01*
Y4297D01*
X11007Y4381D01*
X10943Y4318D01*
X11007Y4254D01*
X10668Y4381D02*
Y4254D01*
Y4297D01*
X10753Y4381D01*
X10689Y4318D01*
X10753Y4254D01*
X10414Y4381D02*
Y4254D01*
Y4297D01*
X10499Y4381D01*
X10435Y4318D01*
X10499Y4254D01*
X10160Y4381D02*
Y4254D01*
Y4297D01*
X10245Y4381D01*
X10181Y4318D01*
X10245Y4254D01*
X9906Y4381D02*
Y4254D01*
Y4297D01*
X9991Y4381D01*
X9927Y4318D01*
X9991Y4254D01*
X9652Y4381D02*
Y4254D01*
Y4297D01*
X9737Y4381D01*
X9673Y4318D01*
X9737Y4254D01*
X9398Y4381D02*
Y4254D01*
Y4297D01*
X9483Y4381D01*
X9419Y4318D01*
X9483Y4254D01*
X9144Y4381D02*
Y4254D01*
Y4297D01*
X9229Y4381D01*
X9165Y4318D01*
X9229Y4254D01*
X11176Y4127D02*
Y4001D01*
Y4043D01*
X11261Y4127D01*
X11197Y4064D01*
X11261Y4001D01*
X10922Y4127D02*
Y4001D01*
Y4043D01*
X11007Y4127D01*
X10943Y4064D01*
X11007Y4001D01*
X10668Y4127D02*
Y4001D01*
Y4043D01*
X10753Y4127D01*
X10689Y4064D01*
X10753Y4001D01*
X10414Y4127D02*
Y4001D01*
Y4043D01*
X10499Y4127D01*
X10435Y4064D01*
X10499Y4001D01*
X10160Y4127D02*
Y4001D01*
Y4043D01*
X10245Y4127D01*
X10181Y4064D01*
X10245Y4001D01*
X9906Y4127D02*
Y4001D01*
Y4043D01*
X9991Y4127D01*
X9927Y4064D01*
X9991Y4001D01*
X9652Y4127D02*
Y4001D01*
Y4043D01*
X9737Y4127D01*
X9673Y4064D01*
X9737Y4001D01*
X9398Y4127D02*
Y4001D01*
Y4043D01*
X9483Y4127D01*
X9419Y4064D01*
X9483Y4001D01*
X9144Y4127D02*
Y4001D01*
Y4043D01*
X9229Y4127D01*
X9165Y4064D01*
X9229Y4001D01*
X11176Y3873D02*
Y3747D01*
Y3789D01*
X11261Y3873D01*
X11197Y3810D01*
X11261Y3747D01*
X10922Y3873D02*
Y3747D01*
Y3789D01*
X11007Y3873D01*
X10943Y3810D01*
X11007Y3747D01*
X10668Y3873D02*
Y3747D01*
Y3789D01*
X10753Y3873D01*
X10689Y3810D01*
X10753Y3747D01*
X10414Y3873D02*
Y3747D01*
Y3789D01*
X10499Y3873D01*
X10435Y3810D01*
X10499Y3747D01*
X10160Y3873D02*
Y3747D01*
Y3789D01*
X10245Y3873D01*
X10181Y3810D01*
X10245Y3747D01*
X9906Y3873D02*
Y3747D01*
Y3789D01*
X9991Y3873D01*
X9927Y3810D01*
X9991Y3747D01*
X9652Y3873D02*
Y3747D01*
Y3789D01*
X9737Y3873D01*
X9673Y3810D01*
X9737Y3747D01*
X9398Y3873D02*
Y3747D01*
Y3789D01*
X9483Y3873D01*
X9419Y3810D01*
X9483Y3747D01*
X9144Y3873D02*
Y3747D01*
Y3789D01*
X9229Y3873D01*
X9165Y3810D01*
X9229Y3747D01*
X11176Y3619D02*
Y3492D01*
Y3535D01*
X11261Y3619D01*
X11197Y3556D01*
X11261Y3492D01*
X10922Y3619D02*
Y3492D01*
Y3535D01*
X11007Y3619D01*
X10943Y3556D01*
X11007Y3492D01*
X10668Y3619D02*
Y3492D01*
Y3535D01*
X10753Y3619D01*
X10689Y3556D01*
X10753Y3492D01*
X10414Y3619D02*
Y3492D01*
Y3535D01*
X10499Y3619D01*
X10435Y3556D01*
X10499Y3492D01*
X10160Y3619D02*
Y3492D01*
Y3535D01*
X10245Y3619D01*
X10181Y3556D01*
X10245Y3492D01*
X9906Y3619D02*
Y3492D01*
Y3535D01*
X9991Y3619D01*
X9927Y3556D01*
X9991Y3492D01*
X9652Y3619D02*
Y3492D01*
Y3535D01*
X9737Y3619D01*
X9673Y3556D01*
X9737Y3492D01*
X9398Y3619D02*
Y3492D01*
Y3535D01*
X9483Y3619D01*
X9419Y3556D01*
X9483Y3492D01*
X9144Y3619D02*
Y3492D01*
Y3535D01*
X9229Y3619D01*
X9165Y3556D01*
X9229Y3492D01*
X11176Y3365D02*
Y3238D01*
Y3281D01*
X11261Y3365D01*
X11197Y3302D01*
X11261Y3238D01*
X10922Y3365D02*
Y3238D01*
Y3281D01*
X11007Y3365D01*
X10943Y3302D01*
X11007Y3238D01*
X10668Y3365D02*
Y3238D01*
Y3281D01*
X10753Y3365D01*
X10689Y3302D01*
X10753Y3238D01*
X10414Y3365D02*
Y3238D01*
Y3281D01*
X10499Y3365D01*
X10435Y3302D01*
X10499Y3238D01*
X10160Y3365D02*
Y3238D01*
Y3281D01*
X10245Y3365D01*
X10181Y3302D01*
X10245Y3238D01*
X9906Y3365D02*
Y3238D01*
Y3281D01*
X9991Y3365D01*
X9927Y3302D01*
X9991Y3238D01*
X9652Y3365D02*
Y3238D01*
Y3281D01*
X9737Y3365D01*
X9673Y3302D01*
X9737Y3238D01*
X9398Y3365D02*
Y3238D01*
Y3281D01*
X9483Y3365D01*
X9419Y3302D01*
X9483Y3238D01*
X9144Y3365D02*
Y3238D01*
Y3281D01*
X9229Y3365D01*
X9165Y3302D01*
X9229Y3238D01*
X11176Y3111D02*
Y2984D01*
Y3027D01*
X11261Y3111D01*
X11197Y3048D01*
X11261Y2984D01*
X10922Y3111D02*
Y2984D01*
Y3027D01*
X11007Y3111D01*
X10943Y3048D01*
X11007Y2984D01*
X10668Y3111D02*
Y2984D01*
Y3027D01*
X10753Y3111D01*
X10689Y3048D01*
X10753Y2984D01*
X10414Y3111D02*
Y2984D01*
Y3027D01*
X10499Y3111D01*
X10435Y3048D01*
X10499Y2984D01*
X10160Y3111D02*
Y2984D01*
Y3027D01*
X10245Y3111D01*
X10181Y3048D01*
X10245Y2984D01*
X9906Y3111D02*
Y2984D01*
Y3027D01*
X9991Y3111D01*
X9927Y3048D01*
X9991Y2984D01*
X9652Y3111D02*
Y2984D01*
Y3027D01*
X9737Y3111D01*
X9673Y3048D01*
X9737Y2984D01*
X9398Y3111D02*
Y2984D01*
Y3027D01*
X9483Y3111D01*
X9419Y3048D01*
X9483Y2984D01*
X9144Y3111D02*
Y2984D01*
Y3027D01*
X9229Y3111D01*
X9165Y3048D01*
X9229Y2984D01*
X11176Y2857D02*
Y2731D01*
Y2773D01*
X11261Y2857D01*
X11197Y2794D01*
X11261Y2731D01*
X10922Y2857D02*
Y2731D01*
Y2773D01*
X11007Y2857D01*
X10943Y2794D01*
X11007Y2731D01*
X10668Y2857D02*
Y2731D01*
Y2773D01*
X10753Y2857D01*
X10689Y2794D01*
X10753Y2731D01*
X10414Y2857D02*
Y2731D01*
Y2773D01*
X10499Y2857D01*
X10435Y2794D01*
X10499Y2731D01*
X10160Y2857D02*
Y2731D01*
Y2773D01*
X10245Y2857D01*
X10181Y2794D01*
X10245Y2731D01*
X9906Y2857D02*
Y2731D01*
Y2773D01*
X9991Y2857D01*
X9927Y2794D01*
X9991Y2731D01*
X9652Y2857D02*
Y2731D01*
Y2773D01*
X9737Y2857D01*
X9673Y2794D01*
X9737Y2731D01*
X9398Y2857D02*
Y2731D01*
Y2773D01*
X9483Y2857D01*
X9419Y2794D01*
X9483Y2731D01*
X9144Y2857D02*
Y2731D01*
Y2773D01*
X9229Y2857D01*
X9165Y2794D01*
X9229Y2731D01*
X11176Y2603D02*
Y2476D01*
Y2519D01*
X11261Y2603D01*
X11197Y2540D01*
X11261Y2476D01*
X10922Y2603D02*
Y2476D01*
Y2519D01*
X11007Y2603D01*
X10943Y2540D01*
X11007Y2476D01*
X10668Y2603D02*
Y2476D01*
Y2519D01*
X10753Y2603D01*
X10689Y2540D01*
X10753Y2476D01*
X10414Y2603D02*
Y2476D01*
Y2519D01*
X10499Y2603D01*
X10435Y2540D01*
X10499Y2476D01*
X10160Y2603D02*
Y2476D01*
Y2519D01*
X10245Y2603D01*
X10181Y2540D01*
X10245Y2476D01*
X9906Y2603D02*
Y2476D01*
Y2519D01*
X9991Y2603D01*
X9927Y2540D01*
X9991Y2476D01*
X9652Y2603D02*
Y2476D01*
Y2519D01*
X9737Y2603D01*
X9673Y2540D01*
X9737Y2476D01*
X9398Y2603D02*
Y2476D01*
Y2519D01*
X9483Y2603D01*
X9419Y2540D01*
X9483Y2476D01*
X9144Y2603D02*
Y2476D01*
Y2519D01*
X9229Y2603D01*
X9165Y2540D01*
X9229Y2476D01*
X11176Y2349D02*
Y2223D01*
Y2265D01*
X11261Y2349D01*
X11197Y2286D01*
X11261Y2223D01*
X10922Y2349D02*
Y2223D01*
Y2265D01*
X11007Y2349D01*
X10943Y2286D01*
X11007Y2223D01*
X10668Y2349D02*
Y2223D01*
Y2265D01*
X10753Y2349D01*
X10689Y2286D01*
X10753Y2223D01*
X10414Y2349D02*
Y2223D01*
Y2265D01*
X10499Y2349D01*
X10435Y2286D01*
X10499Y2223D01*
X10160Y2349D02*
Y2223D01*
Y2265D01*
X10245Y2349D01*
X10181Y2286D01*
X10245Y2223D01*
X9906Y2349D02*
Y2223D01*
Y2265D01*
X9991Y2349D01*
X9927Y2286D01*
X9991Y2223D01*
X9652Y2349D02*
Y2223D01*
Y2265D01*
X9737Y2349D01*
X9673Y2286D01*
X9737Y2223D01*
X9398Y2349D02*
Y2223D01*
Y2265D01*
X9483Y2349D01*
X9419Y2286D01*
X9483Y2223D01*
X9144Y2349D02*
Y2223D01*
Y2265D01*
X9229Y2349D01*
X9165Y2286D01*
X9229Y2223D01*
X11176Y2095D02*
Y1968D01*
Y2011D01*
X11261Y2095D01*
X11197Y2032D01*
X11261Y1968D01*
X10922Y2095D02*
Y1968D01*
Y2011D01*
X11007Y2095D01*
X10943Y2032D01*
X11007Y1968D01*
X10668Y2095D02*
Y1968D01*
Y2011D01*
X10753Y2095D01*
X10689Y2032D01*
X10753Y1968D01*
X10414Y2095D02*
Y1968D01*
Y2011D01*
X10499Y2095D01*
X10435Y2032D01*
X10499Y1968D01*
X10160Y2095D02*
Y1968D01*
Y2011D01*
X10245Y2095D01*
X10181Y2032D01*
X10245Y1968D01*
X9906Y2095D02*
Y1968D01*
Y2011D01*
X9991Y2095D01*
X9927Y2032D01*
X9991Y1968D01*
X9652Y2095D02*
Y1968D01*
Y2011D01*
X9737Y2095D01*
X9673Y2032D01*
X9737Y1968D01*
X9398Y2095D02*
Y1968D01*
Y2011D01*
X9483Y2095D01*
X9419Y2032D01*
X9483Y1968D01*
X9144Y2095D02*
Y1968D01*
Y2011D01*
X9229Y2095D01*
X9165Y2032D01*
X9229Y1968D01*
X11176Y1841D02*
Y1715D01*
Y1757D01*
X11261Y1841D01*
X11197Y1778D01*
X11261Y1715D01*
X10922Y1841D02*
Y1715D01*
Y1757D01*
X11007Y1841D01*
X10943Y1778D01*
X11007Y1715D01*
X10668Y1841D02*
Y1715D01*
Y1757D01*
X10753Y1841D01*
X10689Y1778D01*
X10753Y1715D01*
X10414Y1841D02*
Y1715D01*
Y1757D01*
X10499Y1841D01*
X10435Y1778D01*
X10499Y1715D01*
X10160Y1841D02*
Y1715D01*
Y1757D01*
X10245Y1841D01*
X10181Y1778D01*
X10245Y1715D01*
X9906Y1841D02*
Y1715D01*
Y1757D01*
X9991Y1841D01*
X9927Y1778D01*
X9991Y1715D01*
X9652Y1841D02*
Y1715D01*
Y1757D01*
X9737Y1841D01*
X9673Y1778D01*
X9737Y1715D01*
X9398Y1841D02*
Y1715D01*
Y1757D01*
X9483Y1841D01*
X9419Y1778D01*
X9483Y1715D01*
X9144Y1841D02*
Y1715D01*
Y1757D01*
X9229Y1841D01*
X9165Y1778D01*
X9229Y1715D01*
X11176Y1587D02*
Y1460D01*
Y1503D01*
X11261Y1587D01*
X11197Y1524D01*
X11261Y1460D01*
X10922Y1587D02*
Y1460D01*
Y1503D01*
X11007Y1587D01*
X10943Y1524D01*
X11007Y1460D01*
X10668Y1587D02*
Y1460D01*
Y1503D01*
X10753Y1587D01*
X10689Y1524D01*
X10753Y1460D01*
X10414Y1587D02*
Y1460D01*
Y1503D01*
X10499Y1587D01*
X10435Y1524D01*
X10499Y1460D01*
X10160Y1587D02*
Y1460D01*
Y1503D01*
X10245Y1587D01*
X10181Y1524D01*
X10245Y1460D01*
X9906Y1587D02*
Y1460D01*
Y1503D01*
X9991Y1587D01*
X9927Y1524D01*
X9991Y1460D01*
X9652Y1587D02*
Y1460D01*
Y1503D01*
X9737Y1587D01*
X9673Y1524D01*
X9737Y1460D01*
X9398Y1587D02*
Y1460D01*
Y1503D01*
X9483Y1587D01*
X9419Y1524D01*
X9483Y1460D01*
X9144Y1587D02*
Y1460D01*
Y1503D01*
X9229Y1587D01*
X9165Y1524D01*
X9229Y1460D01*
X11176Y1333D02*
Y1206D01*
Y1249D01*
X11261Y1333D01*
X11197Y1270D01*
X11261Y1206D01*
X10922Y1333D02*
Y1206D01*
Y1249D01*
X11007Y1333D01*
X10943Y1270D01*
X11007Y1206D01*
X10668Y1333D02*
Y1206D01*
Y1249D01*
X10753Y1333D01*
X10689Y1270D01*
X10753Y1206D01*
X10414Y1333D02*
Y1206D01*
Y1249D01*
X10499Y1333D01*
X10435Y1270D01*
X10499Y1206D01*
X10160Y1333D02*
Y1206D01*
Y1249D01*
X10245Y1333D01*
X10181Y1270D01*
X10245Y1206D01*
X9906Y1333D02*
Y1206D01*
Y1249D01*
X9991Y1333D01*
X9927Y1270D01*
X9991Y1206D01*
X9652Y1333D02*
Y1206D01*
Y1249D01*
X9737Y1333D01*
X9673Y1270D01*
X9737Y1206D01*
X9398Y1333D02*
Y1206D01*
Y1249D01*
X9483Y1333D01*
X9419Y1270D01*
X9483Y1206D01*
X9144Y1333D02*
Y1206D01*
Y1249D01*
X9229Y1333D01*
X9165Y1270D01*
X9229Y1206D01*
X11176Y1079D02*
Y952D01*
Y995D01*
X11261Y1079D01*
X11197Y1016D01*
X11261Y952D01*
X10922Y1079D02*
Y952D01*
Y995D01*
X11007Y1079D01*
X10943Y1016D01*
X11007Y952D01*
X10668Y1079D02*
Y952D01*
Y995D01*
X10753Y1079D01*
X10689Y1016D01*
X10753Y952D01*
X10414Y1079D02*
Y952D01*
Y995D01*
X10499Y1079D01*
X10435Y1016D01*
X10499Y952D01*
X10160Y1079D02*
Y952D01*
Y995D01*
X10245Y1079D01*
X10181Y1016D01*
X10245Y952D01*
X9906Y1079D02*
Y952D01*
Y995D01*
X9991Y1079D01*
X9927Y1016D01*
X9991Y952D01*
X9652Y1079D02*
Y952D01*
Y995D01*
X9737Y1079D01*
X9673Y1016D01*
X9737Y952D01*
X9398Y1079D02*
Y952D01*
Y995D01*
X9483Y1079D01*
X9419Y1016D01*
X9483Y952D01*
X9144Y1079D02*
Y952D01*
Y995D01*
X9229Y1079D01*
X9165Y1016D01*
X9229Y952D01*
X11176Y825D02*
Y699D01*
Y741D01*
X11261Y825D01*
X11197Y762D01*
X11261Y699D01*
X10922Y825D02*
Y699D01*
Y741D01*
X11007Y825D01*
X10943Y762D01*
X11007Y699D01*
X10668Y825D02*
Y699D01*
Y741D01*
X10753Y825D01*
X10689Y762D01*
X10753Y699D01*
X10414Y825D02*
Y699D01*
Y741D01*
X10499Y825D01*
X10435Y762D01*
X10499Y699D01*
X10160Y825D02*
Y699D01*
Y741D01*
X10245Y825D01*
X10181Y762D01*
X10245Y699D01*
X9906Y825D02*
Y699D01*
Y741D01*
X9991Y825D01*
X9927Y762D01*
X9991Y699D01*
X9652Y825D02*
Y699D01*
Y741D01*
X9737Y825D01*
X9673Y762D01*
X9737Y699D01*
X9398Y825D02*
Y699D01*
Y741D01*
X9483Y825D01*
X9419Y762D01*
X9483Y699D01*
X9144Y825D02*
Y699D01*
Y741D01*
X9229Y825D01*
X9165Y762D01*
X9229Y699D01*
X11176Y571D02*
Y445D01*
Y487D01*
X11261Y571D01*
X11197Y508D01*
X11261Y445D01*
X10922Y571D02*
Y445D01*
Y487D01*
X11007Y571D01*
X10943Y508D01*
X11007Y445D01*
X10668Y571D02*
Y445D01*
Y487D01*
X10753Y571D01*
X10689Y508D01*
X10753Y445D01*
X10414Y571D02*
Y445D01*
Y487D01*
X10499Y571D01*
X10435Y508D01*
X10499Y445D01*
X10160Y571D02*
Y445D01*
Y487D01*
X10245Y571D01*
X10181Y508D01*
X10245Y445D01*
X9906Y571D02*
Y445D01*
Y487D01*
X9991Y571D01*
X9927Y508D01*
X9991Y445D01*
X9652Y571D02*
Y445D01*
Y487D01*
X9737Y571D01*
X9673Y508D01*
X9737Y445D01*
X9398Y571D02*
Y445D01*
Y487D01*
X9483Y571D01*
X9419Y508D01*
X9483Y445D01*
X9144Y571D02*
Y445D01*
Y487D01*
X9229Y571D01*
X9165Y508D01*
X9229Y445D01*
X8890Y571D02*
Y445D01*
Y487D01*
X8975Y571D01*
X8911Y508D01*
X8975Y445D01*
X8890Y825D02*
Y699D01*
Y741D01*
X8975Y825D01*
X8911Y762D01*
X8975Y699D01*
X8890Y1079D02*
Y952D01*
Y995D01*
X8975Y1079D01*
X8911Y1016D01*
X8975Y952D01*
X8890Y1333D02*
Y1206D01*
Y1249D01*
X8975Y1333D01*
X8911Y1270D01*
X8975Y1206D01*
X8890Y1587D02*
Y1460D01*
Y1503D01*
X8975Y1587D01*
X8911Y1524D01*
X8975Y1460D01*
X8890Y1841D02*
Y1715D01*
Y1757D01*
X8975Y1841D01*
X8911Y1778D01*
X8975Y1715D01*
X8890Y2095D02*
Y1968D01*
Y2011D01*
X8975Y2095D01*
X8911Y2032D01*
X8975Y1968D01*
X8890Y2349D02*
Y2223D01*
Y2265D01*
X8975Y2349D01*
X8911Y2286D01*
X8975Y2223D01*
X8890Y2603D02*
Y2476D01*
Y2519D01*
X8975Y2603D01*
X8911Y2540D01*
X8975Y2476D01*
X8890Y2857D02*
Y2731D01*
Y2773D01*
X8975Y2857D01*
X8911Y2794D01*
X8975Y2731D01*
X8890Y3111D02*
Y2984D01*
Y3027D01*
X8975Y3111D01*
X8911Y3048D01*
X8975Y2984D01*
X8890Y3365D02*
Y3238D01*
Y3281D01*
X8975Y3365D01*
X8911Y3302D01*
X8975Y3238D01*
X8890Y3619D02*
Y3492D01*
Y3535D01*
X8975Y3619D01*
X8911Y3556D01*
X8975Y3492D01*
X8890Y3873D02*
Y3747D01*
Y3789D01*
X8975Y3873D01*
X8911Y3810D01*
X8975Y3747D01*
X18415Y10312D02*
X18440Y10338D01*
X18466D01*
X18440Y10363D01*
X18466Y10389D01*
X18440D01*
X18415Y10414D01*
X18390Y10389D01*
X18364D01*
X18390Y10363D01*
X18364Y10338D01*
X18390D01*
X18415Y10312D01*
X5651Y7254D02*
Y7127D01*
X5736D01*
X18479Y3099D02*
Y2972D01*
X18563D01*
X18479Y1448D02*
Y1321D01*
X18563D01*
X15443Y444D02*
Y317D01*
X15528D01*
X15192Y444D02*
Y317D01*
X15276D01*
X16170Y1889D02*
Y1762D01*
X16255D01*
X16358Y1892D02*
Y1765D01*
X16442D01*
X15900Y1905D02*
Y1778D01*
X15985D01*
X18339Y2489D02*
Y2362D01*
X18423D01*
X18199Y3365D02*
Y3238D01*
X18284D01*
X12497Y914D02*
Y787D01*
X12581D01*
X13005Y914D02*
Y787D01*
X13089D01*
X13462Y914D02*
Y787D01*
X13547D01*
X10363Y6972D02*
Y6845D01*
X10448D01*
X16866Y6248D02*
Y6121D01*
X16950D01*
X15761Y4039D02*
Y3912D01*
X15845D01*
X10960Y11684D02*
Y11557D01*
X11045D01*
X10960Y12192D02*
Y12065D01*
X11045D01*
X11239Y12446D02*
Y12319D01*
X11324D01*
X11112Y12573D02*
Y12446D01*
X11197D01*
X10922Y9004D02*
Y8877D01*
X11007D01*
X12903Y1372D02*
Y1245D01*
X12988D01*
X14681Y1372D02*
Y1245D01*
X14766D01*
X14173Y1372D02*
Y1245D01*
X14258D01*
X13919Y1372D02*
Y1245D01*
X14004D01*
X13411Y1372D02*
Y1245D01*
X13496D01*
X16688Y2375D02*
Y2248D01*
X16772D01*
X16459Y2413D02*
Y2286D01*
X16544D01*
X16365Y2980D02*
Y2853D01*
X16450D01*
X16688Y2807D02*
Y2680D01*
X16772D01*
X15812Y2413D02*
Y2286D01*
X15896D01*
X16840Y2045D02*
Y1918D01*
X16925D01*
X16840Y1638D02*
Y1511D01*
X16925D01*
X18885Y1727D02*
Y1600D01*
X18970D01*
X18504Y5410D02*
Y5283D01*
X18589D01*
X19025Y4826D02*
Y4699D01*
X19109D01*
X19025Y5334D02*
Y5207D01*
X19109D01*
X17843Y14097D02*
Y13970D01*
X17928D01*
X17971Y14097D02*
Y13970D01*
X18055D01*
X18098Y14097D02*
Y13970D01*
X18182D01*
X18098Y14224D02*
Y14097D01*
X18182D01*
X17971Y14224D02*
Y14097D01*
X18055D01*
X17843Y14224D02*
Y14097D01*
X17928D01*
X17843Y14351D02*
Y14224D01*
X17928D01*
X17971Y14351D02*
Y14224D01*
X18055D01*
X18098Y14351D02*
Y14224D01*
X18182D01*
X18224Y14097D02*
Y13970D01*
X18309D01*
X18224Y14224D02*
Y14097D01*
X18309D01*
X18224Y14351D02*
Y14224D01*
X18309D01*
X18224Y14478D02*
Y14351D01*
X18309D01*
X18224Y14605D02*
Y14478D01*
X18309D01*
X18224Y14732D02*
Y14605D01*
X18309D01*
X18224Y14859D02*
Y14732D01*
X18309D01*
X18224Y14986D02*
Y14859D01*
X18309D01*
X18224Y15113D02*
Y14986D01*
X18309D01*
X18098Y15113D02*
Y14986D01*
X18182D01*
X17971Y15113D02*
Y14986D01*
X18055D01*
X17843Y15113D02*
Y14986D01*
X17928D01*
X18224Y15240D02*
Y15113D01*
X18309D01*
X18098Y15240D02*
Y15113D01*
X18182D01*
X17971Y15240D02*
Y15113D01*
X18055D01*
X17843Y15240D02*
Y15113D01*
X17928D01*
X18224Y15367D02*
Y15240D01*
X18309D01*
X18098Y15367D02*
Y15240D01*
X18182D01*
X17971Y15367D02*
Y15240D01*
X18055D01*
X17843Y15367D02*
Y15240D01*
X17928D01*
X9144Y7150D02*
Y7023D01*
X9229D01*
X9144Y7404D02*
Y7277D01*
X9229D01*
X8560Y7785D02*
Y7658D01*
X8644D01*
X13081Y7785D02*
Y7658D01*
X13166D01*
X12446Y7785D02*
Y7658D01*
X12531D01*
X8865Y7404D02*
Y7277D01*
X8949D01*
X8865Y7150D02*
Y7023D01*
X8949D01*
X13710Y2603D02*
Y2476D01*
X13794D01*
X13710Y2769D02*
Y2642D01*
X13794D01*
X13710Y3137D02*
Y3010D01*
X13794D01*
X13974Y3233D02*
Y3106D01*
X14058D01*
X13935Y2696D02*
Y2569D01*
X14020D01*
X13417Y2758D02*
Y2631D01*
X13502D01*
X10706Y8217D02*
Y8090D01*
X10791D01*
X18085Y1740D02*
Y1613D01*
X18169D01*
X9525Y9055D02*
Y8928D01*
X9610D01*
X12395Y1372D02*
Y1245D01*
X12480D01*
X14923Y2045D02*
Y1918D01*
X15007D01*
X13767Y2210D02*
Y2083D01*
X13851D01*
X13970Y2210D02*
Y2083D01*
X14055D01*
X13881Y4254D02*
Y4128D01*
X13966D01*
X13754Y4115D02*
Y3988D01*
X13839D01*
X14948Y1867D02*
Y1740D01*
X15033D01*
X12451Y11041D02*
Y10914D01*
X12536D01*
X12243Y2271D02*
Y2144D01*
X12327D01*
X11595Y1524D02*
Y1397D01*
X11680D01*
X12649Y1656D02*
Y1529D01*
X12734D01*
X14836Y4219D02*
Y4092D01*
X14921D01*
X13721Y4686D02*
Y4559D01*
X13806D01*
X12444Y2249D02*
Y2123D01*
X12529D01*
X13035Y2304D02*
Y2177D01*
X13120D01*
X12243Y2591D02*
Y2464D01*
X12327D01*
X12243Y2883D02*
Y2756D01*
X12327D01*
X14376Y914D02*
Y787D01*
X14461D01*
X15278Y2959D02*
Y2832D01*
X15363D01*
X15309Y3228D02*
Y3101D01*
X15393D01*
X15710Y3848D02*
Y3721D01*
X15795D01*
X13764Y1801D02*
Y1674D01*
X13849D01*
X13965Y1796D02*
Y1669D01*
X14050D01*
X14046Y749D02*
Y622D01*
X14131D01*
X14999Y2959D02*
Y2832D01*
X15083D01*
X14961Y3124D02*
Y2997D01*
X15045D01*
X14432Y5730D02*
Y5603D01*
X14517D01*
X15397Y4379D02*
Y4252D01*
X15482D01*
X15400Y5446D02*
Y5319D01*
X15485D01*
X12085Y876D02*
Y749D01*
X12170D01*
X8128Y5055D02*
Y4928D01*
X8213D01*
X15862Y4432D02*
Y4305D01*
X15947D01*
X8230Y5956D02*
Y5829D01*
X8314D01*
X5232Y6718D02*
Y6591D01*
X5317D01*
X5956Y5524D02*
Y5397D01*
X6041D01*
X5194Y6312D02*
Y6185D01*
X5279D01*
X5334Y6159D02*
Y6033D01*
X5419D01*
X5334Y5880D02*
Y5753D01*
X5419D01*
X5156Y5880D02*
Y5753D01*
X5241D01*
X5372Y6363D02*
Y6236D01*
X5457D01*
X4572Y8382D02*
Y8255D01*
X4657D01*
X4572Y8255D02*
Y8128D01*
X4657D01*
X4572Y8128D02*
Y8001D01*
X4657D01*
X4572Y8001D02*
Y7874D01*
X4657D01*
X4572Y7874D02*
Y7747D01*
X4657D01*
X4572Y7747D02*
Y7620D01*
X4657D01*
X4699Y8382D02*
Y8255D01*
X4784D01*
X4826Y8382D02*
Y8255D01*
X4911D01*
X4953Y8382D02*
Y8255D01*
X5038D01*
X5080Y8382D02*
Y8255D01*
X5165D01*
X5207Y8382D02*
Y8255D01*
X5292D01*
X4699Y8255D02*
Y8128D01*
X4784D01*
X4826Y8255D02*
Y8128D01*
X4911D01*
X4953Y8255D02*
Y8128D01*
X5038D01*
X5080Y8255D02*
Y8128D01*
X5165D01*
X5207Y8255D02*
Y8128D01*
X5292D01*
X4699Y8128D02*
Y8001D01*
X4784D01*
X4826Y8128D02*
Y8001D01*
X4911D01*
X4953Y8128D02*
Y8001D01*
X5038D01*
X5080Y8128D02*
Y8001D01*
X5165D01*
X5207Y8128D02*
Y8001D01*
X5292D01*
X5334Y8128D02*
Y8001D01*
X5419D01*
X5461Y8128D02*
Y8001D01*
X5546D01*
X5588Y8128D02*
Y8001D01*
X5673D01*
X5715Y8128D02*
Y8001D01*
X5800D01*
X5842Y8128D02*
Y8001D01*
X5927D01*
X5969Y8128D02*
Y8001D01*
X6054D01*
X4699Y8001D02*
Y7874D01*
X4784D01*
X4826Y8001D02*
Y7874D01*
X4911D01*
X4953Y8001D02*
Y7874D01*
X5038D01*
X5080Y8001D02*
Y7874D01*
X5165D01*
X5207Y8001D02*
Y7874D01*
X5292D01*
X5334Y8001D02*
Y7874D01*
X5419D01*
X5461Y8001D02*
Y7874D01*
X5546D01*
X5588Y8001D02*
Y7874D01*
X5673D01*
X5715Y8001D02*
Y7874D01*
X5800D01*
X5842Y8001D02*
Y7874D01*
X5927D01*
X5969Y8001D02*
Y7874D01*
X6054D01*
X4699Y7874D02*
Y7747D01*
X4784D01*
X4826Y7874D02*
Y7747D01*
X4911D01*
X4953Y7874D02*
Y7747D01*
X5038D01*
X5080Y7874D02*
Y7747D01*
X5165D01*
X5207Y7874D02*
Y7747D01*
X5292D01*
X5334Y7874D02*
Y7747D01*
X5419D01*
X5461Y7874D02*
Y7747D01*
X5546D01*
X5588Y7874D02*
Y7747D01*
X5673D01*
X5715Y7874D02*
Y7747D01*
X5800D01*
X5842Y7874D02*
Y7747D01*
X5927D01*
X5969Y7874D02*
Y7747D01*
X6054D01*
X4699Y7747D02*
Y7620D01*
X4784D01*
X4826Y7747D02*
Y7620D01*
X4911D01*
X4953Y7747D02*
Y7620D01*
X5038D01*
X5080Y7747D02*
Y7620D01*
X5165D01*
X5207Y7747D02*
Y7620D01*
X5292D01*
X5334Y7747D02*
Y7620D01*
X5419D01*
X5461Y7747D02*
Y7620D01*
X5546D01*
X5842Y7747D02*
Y7620D01*
X5927D01*
X5969Y7747D02*
Y7620D01*
X6054D01*
X7366Y8318D02*
Y8192D01*
X7451D01*
X7493Y8318D02*
Y8192D01*
X7578D01*
X7620Y8318D02*
Y8192D01*
X7705D01*
X7747Y8318D02*
Y8192D01*
X7832D01*
X7366Y8191D02*
Y8064D01*
X7451D01*
X7493Y8191D02*
Y8064D01*
X7578D01*
X7620Y8191D02*
Y8064D01*
X7705D01*
X7747Y8191D02*
Y8064D01*
X7832D01*
X7366Y8064D02*
Y7938D01*
X7451D01*
X7493Y8064D02*
Y7938D01*
X7578D01*
X7620Y8064D02*
Y7938D01*
X7705D01*
X7747Y8064D02*
Y7938D01*
X7832D01*
X7366Y7937D02*
Y7811D01*
X7451D01*
X7493Y7937D02*
Y7811D01*
X7578D01*
X7620Y7937D02*
Y7811D01*
X7705D01*
X7747Y7937D02*
Y7811D01*
X7832D01*
X7366Y7810D02*
Y7683D01*
X7451D01*
X7493Y7810D02*
Y7683D01*
X7578D01*
X7620Y7810D02*
Y7683D01*
X7705D01*
X7747Y7810D02*
Y7683D01*
X7832D01*
X7366Y7683D02*
Y7557D01*
X7451D01*
X7493Y7683D02*
Y7557D01*
X7578D01*
X7620Y7683D02*
Y7557D01*
X7705D01*
X7747Y7683D02*
Y7557D01*
X7832D01*
X7239Y8318D02*
Y8192D01*
X7324D01*
X7239Y8191D02*
Y8064D01*
X7324D01*
X7239Y8064D02*
Y7938D01*
X7324D01*
X7239Y7937D02*
Y7811D01*
X7324D01*
X7239Y7810D02*
Y7683D01*
X7324D01*
X7239Y7683D02*
Y7557D01*
X7324D01*
X18351Y15367D02*
Y15240D01*
X18436D01*
X18479Y15367D02*
Y15240D01*
X18563D01*
X18351Y15240D02*
Y15113D01*
X18436D01*
X18479Y15240D02*
Y15113D01*
X18563D01*
X18351Y15113D02*
Y14986D01*
X18436D01*
X18351Y14986D02*
Y14859D01*
X18436D01*
X18351Y14859D02*
Y14732D01*
X18436D01*
X18351Y14732D02*
Y14605D01*
X18436D01*
X18351Y14605D02*
Y14478D01*
X18436D01*
X18351Y14478D02*
Y14351D01*
X18436D01*
X18351Y14351D02*
Y14224D01*
X18436D01*
X18351Y14224D02*
Y14097D01*
X18436D01*
X18351Y14097D02*
Y13970D01*
X18436D01*
X18479Y14097D02*
Y13970D01*
X18563D01*
X18479Y14224D02*
Y14097D01*
X18563D01*
X18479Y14351D02*
Y14224D01*
X18563D01*
X18479Y14478D02*
Y14351D01*
X18563D01*
X18479Y14605D02*
Y14478D01*
X18563D01*
X18479Y14732D02*
Y14605D01*
X18563D01*
X18479Y14859D02*
Y14732D01*
X18563D01*
X18479Y14986D02*
Y14859D01*
X18563D01*
X18479Y15113D02*
Y14986D01*
X18563D01*
X7239Y8445D02*
Y8318D01*
X7324D01*
X7239Y8572D02*
Y8446D01*
X7324D01*
X7366Y8572D02*
Y8446D01*
X7451D01*
X7366Y8445D02*
Y8318D01*
X7451D01*
X7493Y8445D02*
Y8318D01*
X7578D01*
X7493Y8572D02*
Y8446D01*
X7578D01*
X7620Y8572D02*
Y8446D01*
X7705D01*
X7620Y8445D02*
Y8318D01*
X7705D01*
X7747Y8445D02*
Y8318D01*
X7832D01*
X7747Y8572D02*
Y8446D01*
X7832D01*
X7747Y8699D02*
Y8572D01*
X7832D01*
X7620Y8699D02*
Y8572D01*
X7705D01*
X7493Y8699D02*
Y8572D01*
X7578D01*
X7366Y8699D02*
Y8572D01*
X7451D01*
X7239Y8699D02*
Y8572D01*
X7324D01*
X5588Y7747D02*
Y7620D01*
X5673D01*
X5715Y7747D02*
Y7620D01*
X5800D01*
X5867Y6718D02*
Y6591D01*
X5952D01*
X8115Y6109D02*
Y5982D01*
X8200D01*
X12078Y1854D02*
Y1727D01*
X12162D01*
X10579Y7925D02*
Y7798D01*
X10664D01*
X8092Y7427D02*
Y7300D01*
X8177D01*
X8103Y7722D02*
Y7595D01*
X8187D01*
X8306Y7785D02*
Y7658D01*
X8390D01*
X8026Y7963D02*
Y7836D01*
X8111D01*
X13297Y3696D02*
Y3569D01*
X13382D01*
X4597Y6680D02*
Y6553D01*
X4682D01*
X11913Y444D02*
Y317D01*
X11997D01*
X572Y4750D02*
Y4623D01*
X656D01*
X12090Y533D02*
Y406D01*
X12175D01*
X12004Y1034D02*
Y907D01*
X12089D01*
X11935Y1989D02*
Y1862D01*
X12020D01*
X15494Y889D02*
Y762D01*
X15579D01*
X8814Y6413D02*
Y6287D01*
X8898D01*
X14796Y3238D02*
Y3111D01*
X14880D01*
X13067Y2476D02*
Y2350D01*
X13152D01*
X5766Y6045D02*
Y5918D01*
X5850D01*
X5951Y5984D02*
Y5857D01*
X6036D01*
X14796Y2921D02*
Y2794D01*
X14880D01*
X11722Y6934D02*
Y6807D01*
X11807D01*
X12319Y6782D02*
Y6655D01*
X12404D01*
X13602Y2159D02*
Y2032D01*
X13686D01*
X13157Y1765D02*
Y1638D01*
X13242D01*
X16789Y3378D02*
Y3251D01*
X16874D01*
X16916Y3378D02*
Y3251D01*
X17001D01*
X17043Y3378D02*
Y3251D01*
X17128D01*
X17170Y3378D02*
Y3251D01*
X17255D01*
X17297Y3378D02*
Y3251D01*
X17382D01*
X17424Y3378D02*
Y3251D01*
X17509D01*
X17539Y3378D02*
Y3251D01*
X17623D01*
X17666Y3378D02*
Y3251D01*
X17750D01*
X18034Y3873D02*
Y3747D01*
X18119D01*
X17907Y3873D02*
Y3747D01*
X17992D01*
X17793Y3873D02*
Y3747D01*
X17877D01*
X17666Y3873D02*
Y3747D01*
X17750D01*
X17539Y3873D02*
Y3747D01*
X17623D01*
X17412Y3873D02*
Y3747D01*
X17496D01*
X17285Y3873D02*
Y3747D01*
X17369D01*
X17158Y3873D02*
Y3747D01*
X17242D01*
X18148Y3873D02*
Y3747D01*
X18233D01*
X18275Y3873D02*
Y3747D01*
X18360D01*
X18402Y3873D02*
Y3747D01*
X18487D01*
X18529Y3873D02*
Y3747D01*
X18614D01*
X16426Y6058D02*
Y5931D01*
X16511D01*
X16038Y6058D02*
Y5931D01*
X16122D01*
X11112Y11506D02*
Y11379D01*
X11197D01*
X11379Y6617D02*
Y6490D01*
X11464D01*
X11557Y6439D02*
Y6312D01*
X11642D01*
X10188Y6210D02*
Y6083D01*
X10272D01*
X9169Y6591D02*
Y6464D01*
X9254D01*
X10655Y8776D02*
Y8649D01*
X10740D01*
X10224Y8064D02*
Y7938D01*
X10308D01*
X11227Y6210D02*
Y6083D01*
X11311D01*
X10973Y6071D02*
Y5944D01*
X11057D01*
X10833Y5956D02*
Y5829D01*
X10918D01*
X8395Y5829D02*
Y5702D01*
X8479D01*
D88*
X2896Y6845D02*
G03*
X2896Y6845I-51J0D01*
G01*
X12649Y6185D02*
G03*
X12649Y6185I-51J0D01*
G01*
X18237Y12179D02*
G03*
X18237Y12179I-51J0D01*
G01*
X19609Y6185D02*
G03*
X19609Y6185I-51J0D01*
G01*
X20492Y14567D02*
G03*
X20492Y14567I-51J0D01*
G01*
X19742D02*
G03*
X19742Y14567I-51J0D01*
G01*
X21266Y10096D02*
G03*
X21266Y10096I-51J0D01*
G01*
X22016D02*
G03*
X22016Y10096I-51J0D01*
G01*
X20492Y10960D02*
G03*
X20492Y10960I-51J0D01*
G01*
X19742D02*
G03*
X19742Y10960I-51J0D01*
G01*
X21266Y13652D02*
G03*
X21266Y13652I-51J0D01*
G01*
X22016D02*
G03*
X22016Y13652I-51J0D01*
G01*
X20492Y12789D02*
G03*
X20492Y12789I-51J0D01*
G01*
X19742D02*
G03*
X19742Y12789I-51J0D01*
G01*
X20492Y7404D02*
G03*
X20492Y7404I-51J0D01*
G01*
X19742D02*
G03*
X19742Y7404I-51J0D01*
G01*
X21266Y8318D02*
G03*
X21266Y8318I-51J0D01*
G01*
X22016D02*
G03*
X22016Y8318I-51J0D01*
G01*
X508Y10503D02*
G03*
X508Y10503I-51J0D01*
G01*
Y9003D02*
G03*
X508Y9003I-51J0D01*
G01*
Y10820D02*
G03*
X508Y10820I-51J0D01*
G01*
Y12320D02*
G03*
X508Y12320I-51J0D01*
G01*
X8687Y12712D02*
G03*
X8687Y12712I-51J0D01*
G01*
Y14212D02*
G03*
X8687Y14212I-51J0D01*
G01*
X5714Y12954D02*
G03*
X5714Y12954I-51J0D01*
G01*
X7214D02*
G03*
X7214Y12954I-51J0D01*
G01*
X508Y14149D02*
G03*
X508Y14149I-51J0D01*
G01*
Y12648D02*
G03*
X508Y12648I-51J0D01*
G01*
X5766Y11666D02*
G03*
X5766Y11666I-51J0D01*
G01*
Y9416D02*
G03*
X5766Y9416I-51J0D01*
G01*
X22016Y11875D02*
G03*
X22016Y11875I-51J0D01*
G01*
X21266D02*
G03*
X21266Y11875I-51J0D01*
G01*
X19742Y9182D02*
G03*
X19742Y9182I-51J0D01*
G01*
X20492D02*
G03*
X20492Y9182I-51J0D01*
G01*
X16749Y6896D02*
G03*
X16749Y6896I-51J0D01*
G01*
X18999D02*
G03*
X18999Y6896I-51J0D01*
G01*
D89*
X20471Y14567D02*
G03*
X20471Y14567I-30J0D01*
G01*
X19721D02*
G03*
X19721Y14567I-30J0D01*
G01*
X21245Y10096D02*
G03*
X21245Y10096I-30J0D01*
G01*
X21995D02*
G03*
X21995Y10096I-30J0D01*
G01*
X20471Y10960D02*
G03*
X20471Y10960I-30J0D01*
G01*
X19721D02*
G03*
X19721Y10960I-30J0D01*
G01*
X21245Y13652D02*
G03*
X21245Y13652I-30J0D01*
G01*
X21995D02*
G03*
X21995Y13652I-30J0D01*
G01*
X20471Y12789D02*
G03*
X20471Y12789I-30J0D01*
G01*
X19721D02*
G03*
X19721Y12789I-30J0D01*
G01*
X20471Y7404D02*
G03*
X20471Y7404I-30J0D01*
G01*
X19721D02*
G03*
X19721Y7404I-30J0D01*
G01*
X21245Y8318D02*
G03*
X21245Y8318I-30J0D01*
G01*
X21995D02*
G03*
X21995Y8318I-30J0D01*
G01*
X488Y10503D02*
G03*
X488Y10503I-30J0D01*
G01*
Y9003D02*
G03*
X488Y9003I-30J0D01*
G01*
Y10820D02*
G03*
X488Y10820I-30J0D01*
G01*
Y12320D02*
G03*
X488Y12320I-30J0D01*
G01*
X8666Y12712D02*
G03*
X8666Y12712I-30J0D01*
G01*
Y14212D02*
G03*
X8666Y14212I-30J0D01*
G01*
X5694Y12954D02*
G03*
X5694Y12954I-30J0D01*
G01*
X7194D02*
G03*
X7194Y12954I-30J0D01*
G01*
X488Y14149D02*
G03*
X488Y14149I-30J0D01*
G01*
Y12648D02*
G03*
X488Y12648I-30J0D01*
G01*
X5745Y11666D02*
G03*
X5745Y11666I-30J0D01*
G01*
Y9416D02*
G03*
X5745Y9416I-30J0D01*
G01*
X21995Y11875D02*
G03*
X21995Y11875I-30J0D01*
G01*
X21245D02*
G03*
X21245Y11875I-30J0D01*
G01*
X19721Y9182D02*
G03*
X19721Y9182I-30J0D01*
G01*
X20471D02*
G03*
X20471Y9182I-30J0D01*
G01*
X16729Y6896D02*
G03*
X16729Y6896I-30J0D01*
G01*
X18979D02*
G03*
X18979Y6896I-30J0D01*
G01*
M02*
